<?xml version="1.0" encoding="utf-8"?>
<!-- Generator: Adobe Illustrator 26.1.0, SVG Export Plug-In . SVG Version: 6.00 Build 0)  -->
<svg version="1.1" id="Layer_1" xmlns="http://www.w3.org/2000/svg" xmlns:xlink="http://www.w3.org/1999/xlink" x="0px" y="0px"
	 viewBox="0 0 595.3 499" style="enable-background:new 0 0 595.3 499;" xml:space="preserve">
<style type="text/css">
	.st0{fill:#FFFDFF;}
	.st1{fill:#FDFCFB;}
	.st2{fill:#80644F;}
	.st3{fill:#C0AC95;}
	.st4{fill:#E0D6C8;}
	.st5{fill:#C4B29E;}
	.st6{fill:#B19980;}
	.st7{fill:#DBCFC0;}
	.st8{fill:#292020;}
	.st9{fill:#C7BFB0;}
	.st10{fill:#100F11;}
	.st11{fill:#D4CBBC;}
	.st12{fill:#E6DFD8;}
	.st13{fill:#CBC2B9;}
	.st14{fill:#948275;}
</style>
<g>
	<path class="st0" d="M362.7,40.4c2.4,0.2,4.7,0.4,7.1,0.6c-0.2,1.1,1.5,1.5,1,2.7c-1,2.6-1,2.5,1.6,2.7c0.9,0.1,2.3,0,2.6,0.5
		c2.4,4.2,5.6,1.7,8.5,1.1c0.6-0.1,1.4,0,1.5-0.9c0.1-1-0.7-1.2-1.5-1.5c-1-0.3-2.7,0.4-2.6-1.5c0.1-1.7,1.7-1.6,3-1.8
		c0.9-0.1,1.7-0.8,2.6-0.8c3.8,0.1,7.7-2.5,11.6,0.5c2,1.5,4.1,1.5,6.5,0c1.7-1,4.7-2.7,5.7-1.6c3.4,3.5,6.5,0.7,9.7,0.4
		c1.5,0.7,2.9,1.6,3.9,3.1c-0.1,0.8-0.5,1.9-1.4,1.5c-2.3-1.1-3.8,1.2-5.9,1.1c-1.4-0.1-1.4,1.3-1.3,2.3c0.1,0.9,0.7,1.6,1.6,1.2
		c5-2.2,9.3,0.5,13.1,2.7c4.6,2.6,10.4,5,10.4,12c0,1.8,1.1,2,2.6,2.1c1.7,0.1,3.7,0.4,3.6,2.6c-0.2,2.5,1.3,3.7,2.7,5.2
		c2.7,2.9,3.4,3,5.2-0.3c1.6-2.8,4.4-3.2,5.9-0.4c2,3.9,5.9,1.8,8.5,3.4c0.2-0.5,0.4-0.9,0.6-1.4c1,0.6,2,1.2,3.1,1.9
		c-1.2,4.3-0.6,5.4,3.6,6.9c1,0.3,2.4,0.4,2.4,1.5c0.3,4,3.2,4.9,6.3,5.9c1.1,0.4,2.2,0.9,2.5,2.2c0.6,2.3,2.5,2.9,4.5,2.9
		c2.2,0.1,1.8-2.2,2.7-3.3c1.5,0.5,2.7,1.5,3.8,2.6c-2.2,1.8-2.2,3.5,0.2,5.2c0.8,0.6,1.7,1.3,0.7,2.6c-1.1,1.4-1.8,3.2-2.9,4.6
		c-1.7,2.4-4.3,3.5-7.2,3c-2.7-0.4-3.6-2.4-4.2-5c-0.5-2.1-0.9-5-4-5c-4.5-0.1-8.2-1.7-11.4-5c-2.4-2.5-5.7-1.6-8.5-0.9
		c-2.8,0.7-1.6,3.5-1.8,5.4c-0.1,1.8,0,3.7,0,5.5c-0.1,1.9-0.1,3.6,2.6,3.8c1.6,0.1,2.6,1.9,1.6,3.2c-1.4,1.8-0.2,2.5,0.6,3.6
		c1.6,2.1,2.1,3.9,1.7,7.1c-0.9,7.8-1.8,8.3,6.8,9.7c2.2,0.3,4.7,0.1,6.5,2.2c1.2,1.4,1.4,2.4-0.6,3.1c-4.2,1.4-4.5,1.7-1.3,5
		c6.3,6.7,6,14.6,4.9,22.9c-0.9,7.1-3.3,14.3,1.6,20.9c0.7,0.9,0.5,2,0.5,3c0,1.7,0,3.4,0,5.1c0.1,1.6,0.7,2.4,2,0.9
		c0.8-0.9,1.5-1.5,2.6-0.7c0.8,0.6,0.6,1.5,0.5,2.5c-0.4,4.4-3.5,9.2,1.7,12.8c0.1,0.1,0.1,0.5,0.1,0.8c1.8,5.3-0.2,10.8,1.2,16.4
		c0.8,3.1-0.4,7.1,0.7,10.6c0.3,1,0.4,1.8-0.7,2.3c-0.9,0.4-1.5-0.3-2-0.8c-1.8-1.8-2.2-4.4-3.2-6.6c-0.5-1.1-1.1-2.3-2.5-2
		c-1.2,0.2-1.1,1.5-1.3,2.5c-0.7,3.6-2.6,6.2-6.6,6.6c-0.2-0.3-0.3-0.6-0.5-0.9c-0.2-0.3-0.4-0.5-0.6-0.8c-0.3-0.1-0.4-0.3-0.3-0.6
		c-0.2-0.3-0.4-0.6-0.6-1c-0.4-0.7-0.9-1.5-1.3-2.2c0.9-0.4,2.1-0.8,1.6-2.1c-0.6-1.5-2.1-1.1-3.3-1.2c-5.3-10.8-8.8-22.2-10.5-34.1
		c-0.1-0.4-0.3-0.8-0.4-1.2c-0.1-0.9-0.3-1.8-0.4-2.7c-0.1-0.4-0.3-0.8-0.4-1.2c-0.1-0.9-0.3-1.8-0.4-2.7c-0.1-0.4-0.3-0.8-0.4-1.3
		c-0.1-0.5-0.1-1.1-0.2-1.6c1.9-0.6,3.1-2.1,2.8-3.9c-0.3-2-2.3-1.5-3.8-1.6l0-0.3c-0.1-0.4-0.2-0.8-0.4-1.2
		c-0.1-0.5-0.1-1.1-0.2-1.6c1.6-0.8,3.5,2,4.3,0.4c1-2,0.6-4.6-1.2-6.6c-0.4-0.5-0.8-1.1-1.1-1.6c-2.1-2.9-1.8-6.9,0.8-9.4
		c2.7-2.7,2.6-5.1-0.5-7.7c-2.2-1.9-3.8-3.9-2.6-7.1c0.4-1.2,0.2-2.6,0.3-3.9c0-1.2,0.2-2.5-1.2-3c-1.3-0.4-1.6,0.9-2.2,1.7
		c-0.6,0.7-1,1.7-2.1,1.4c-0.9-0.3-0.6-1.3-0.8-2c-0.2-0.7-0.4-1.5,0.1-4.1c-0.8-1.9-0.8-0.7-0.7,0.3c0,0.5-0.8,1.7,0.7,1.6
		c1-0.1,2.2,0,2.3-1.5c0.1-1.2-0.4-2-2.3-0.4c-1.5,1.9-2.1,2.2-2.5,3c-0.7-0.7-0.7-1.5-0.7-2.4c-0.2-0.4-0.3-0.7-0.5-1.1
		c-0.1-0.5-0.3-1-0.4-1.5c2.5-4.9,2.1-6.1-2.3-7.9c-0.7-2.3-1.3-4.6-2-6.9c3.2-1.1,1.9-3.9,2.2-6c0.7-4.6-1.2-6.1-6-5.2
		c-0.1-0.3-0.1-0.6-0.2-0.8c3.1-1.8,1.9-4.3,1.1-6.8c-1.2-4.1-3.9-7.9-2.9-12.7c0.6-2.8,0.8-5.9-2.7-7.8c-1.3-0.7-1.7-2.8-1.9-4.6
		c-0.4-4.3-3.6-7.4-7.9-8.1c-1.7-0.3-3.7-0.7-3.7-2.8c0-3.6-1.8-5.8-4.6-7.6c-1.1-0.7-2.4-1.8-2.6-3.3c-0.2-2.1-1.8-2.3-3.1-1.7
		c-2.7,1-4.7,0.5-6.7-1.5c-0.6-0.6-1.8-1.1-2.5-0.9c-4.3,1.2-8.6,0.3-12.8,0.6c-1.4,0.1-2.5,0.3-3,1.9c-0.9,3.2,3,14.6,5.6,16.7
		c1.9,1.5,4.2,3.1,4.4,5.7c0.2,3.6,2.2,4.1,4.9,3.4c1.8-0.4,3,0.6,2.6,1.8c-1.4,4.3,1.5,6.3,3.9,8.6c1.3,1.2,1.8,2.2,1.4,4
		c-0.8,3.3-0.3,6.5,2.6,8.9c1.2,1,1.9,2.5,1.9,4.2c0,3.3,1.7,5.6,3.9,7.8c1.4,1.4,3.5,2.5,3.8,4.4c0.9,5.8,3.8,10.7,5.6,16.1
		c0.7,2,1.5,2.2,3.1,1.5c4-1.9,4-1.9,4,2.8c0,1.4-0.1,2.9,0,4.3c0.1,1.2-2.6,5.4,2.4,2.3c1.6-1,3.1,1.2,3.7,2.7
		c0.8,2,1.6,4.1,1.8,6.4c0.2,2.5,1.5,4.2,4.3,4c0.2,0.8,0.3,1.6-0.2,2.3c-1.9-0.1-3.8,0-4.6,2c-0.7,1.8-0.3,3.5,0.6,5.2
		c0.7,1.4,2.7,1.1,3.2,2.6c-0.1,0.6-0.1,1.3-0.2,1.9c-2-0.8-3.7-0.5-3.9,2c-0.3,5.1-1.7,10.3,1.1,15.4c1.5,2.7,2.8,6.5,0.3,8.7
		c-2.4,2.1-2.5,3.6-1.2,5.9c2.5,4.6,0.7,9.4,0.3,14c-0.2,2.6-1.8,5.8-3.1,8.6c-0.9,2.1-1,3.6,2,3.6c0.8,0,1.7,0,1.9,1
		c0.3,1.1-0.4,1.8-1.4,2c-2.5,0.6-3.1,2.3-3.2,4.7c0,1.6-0.5,4-2.6,3.7c-3.1-0.4-3.3,1.7-3.5,3.5c-0.2,1.8-1.3,3.3-1.4,4.7
		c-0.2,3.4-5.4,6.2-1.4,10.2c0.2,0.2-0.3,0.9-0.4,1.4c-0.4,4-4.1,6.1-5.6,9.5c-0.6,1.4-3.8,2-5.8,2.2c-1.8,0.1-2.1-2.1-2.6-3.5
		c-1.3-3.9-4.6-3.7-7.4-3.1c-5.3,1.1-9.8,4.3-14,7.5c-5.3,4.1-3.8,10.8-3.7,15.9c0.2,6.3,0.5,12.7,0.7,19.1
		c0.2,7.7,0.9,15.5-4.1,22.2c-1.2,1.6-0.5,3.2,0.7,4.7c4.4,5.2,2.8,10.7-4,12.9c-1.5,0.5-2.4,1.5-1.8,2.9c0.8,1.9-0.1,3.6,0,5.4
		c-7.5,3.7-15.1,3.6-22.8,1c-0.2-2.9-2.3-4.5-4.1-6.5c-6.7-7.4-14.3-14-19.7-22.6c-4.8-7.6-8.1-15.7-10.9-24.1c-1-2.9-0.7-5,1.3-7.1
		c1.5-1.5,3.1-2.9,4.3-4.5c1.7-2.2,4.1-4.1,3.8-7.4c5.6-7.5,11.3-14.8,16.3-22.7c1.6-0.4,0.9-1.8,1.1-2.8c1.6-2.8,1.9-5.9,2.3-8.9
		c1.3-3.1,1.3-6.3,1.1-9.6c-0.7-9.5-5.4-16.9-12.1-23.3c0.4-3-1.2-5.5-2.1-8.2c-0.4-1.4-2.9-0.3-4.4-0.7c-0.4-0.1-0.9-0.2-1-0.5
		c-2-4.6-6.6-5.7-10.5-7.8c-1.9-1-4.3-0.4-5.7-2c-2.5-2.9-5.6-2.2-8.8-2.3c-4.2-0.1-5.1,3.5-7.4,5.6c-1,0-2.1,0-3.1,0
		c-3.3-5.5,3.9-2.8,4.2-5.6c-1.8-1.5-3.9-1.4-6.1-1.4c-1.7,0-2.5,0.8-2.8,2.5c-0.5,3-3,4.3-5.4,2.3c-3.3-2.8-7.7-1-11.1-3.1
		c-0.7-0.4-1.5,0.2-2.1,0.8c-1.4,1.6-3,2.2-5.1,2.3c-1.8,0.1-3.5,0.7-4.9,2.2c-2.2,2.4-4.6,4.6-6.7,7.2c-1.5,1.8-3.3,2.2-4.7,0.8
		c-1.6-1.6-3.5-4-3.4-5.9c0.1-2.3-2.4-5.3,1-7.1c2.4-1.3,2.8-3.5,2.2-5.7c-0.4-1.7-0.2-3.1,0.4-4.5c2.1-4.4,4.3-8.9,6.7-13.1
		c2.4-4.2,4.2-8.6,3.5-13.5c-0.3-2.1,0.6-3.2,2.6-2.4c2.2,0.8,2.9-0.5,4.2-1.8c2.5-2.6,2.1-6.1,3.2-9.1c2.3-6.3,4.1-12.7,3.2-19.7
		c-0.6-4-1.1-8.1-0.7-12c0.7-6.6-6.1-15-12.8-15.1c-4.4-0.1-8.8,0.5-12.8-2.2c-0.8-0.6-2.5-1.8-3.4,0c-0.7,1.3,0.1,2.6,1.1,3.5
		c0.7,0.6,2.5,0.8,1.3,2.1c-1.1,1.3-1.8-0.3-2.7-1c-2-1.7-1.7-4.7-3.8-6.2c-3.1-2.2-7.2-3.1-8.7-7.3c-0.1-0.4-1.1-0.6-1.7-0.8
		c-3.2-1.1-6.4-1.1-9.4,0.6c-1.7,0.9-3.4,1.6-5.1,0.4c-3.7-2.7-4-0.2-4.1,2.7c-0.1,1.5,0,3.5-1.8,3.3c-4.6-0.3-9.2,1.9-13.8-0.4
		c-0.9-0.4-2.2-0.1-2.3-1.6c-0.1-1.8,1.2-1.7,2.4-1.8c1.2-0.1,1.3-1.1,1.7-1.9c0.6-1,1.4-2.2,2.7-1.8c2.5,0.9,2.6-1,3.4-2.5
		c1.5-2.8,0.8-6.9,4.8-8.3c0.6-0.2,0.6-1.1,0.3-1.8c-0.5-1.1-1.3-0.4-2-0.4c-1.9,0-5.3,1-4.5-2.2c1.1-3.9,0.5-8.4,3.6-11.7
		c0.5-0.6,0.7-1.5,1.7-1.3c1.1,0.2,1.3,1.1,1.4,2.1c0.3,2.1-0.3,3.8-1.5,5.5c-1.2,1.5-0.2,3,0.4,4.4c0.2,0.6,0.9,1,1.6,0.7
		c1.2-0.7,1.7-2,1.8-3.3c0.1-1.4,0.5-2.5,1.3-3.6c1.4-1.9,1.4-3.8,0.1-5.8c-2.5-3.7-1-7.9-1.1-11.8c0-1.6,1.7-2,3-1.7
		c4.2,0.9,7.3-2.8,11.3-2.6c0.7,0,0.9-0.8,1.2-1.3c1.8-3.4,4.2-3.5,6.4-0.1c0.7,1.2,1.7,1.4,2.9,1.6c8.7,1,17.2-1.8,25.9-1.8
		c1.5,0,3-1.1,3.8-2.5c1-1.9,2-2.3,3.3-0.3c0.9,1.3,1.9,1.5,3.2,0.3c2.6-2.4,4-0.8,4.6,1.8c0.3,1.2,0.2,2.5,1.9,2.4
		c7.7-0.4,15.3,1,23,0.6c2.2-0.1,4.3-0.6,6.5,0.2c2.3,0.9,4.5,0.1,6.8-0.1c3.4-0.2,4.7-3.9,8-3.9c4.4,0.1,8.9,0.3,13.1-1.3
		c1-0.4,2.2-0.5,2.5,1c0.3,1.4-0.6,1.8-1.8,1.9c-1.1,0.1-2.8-0.3-2.5,1.5c0.3,1.9,2,1.8,3.5,1.3c3-1,5.8-1.1,9,0
		c2.5,0.9,5.7,0.3,8.5,0.2c1.2,0,2.4-0.9,2-1.9C359.1,42.6,361.5,41.9,362.7,40.4z M371.4,181.7c4,5.2,12.3,5.2,14.8-0.2
		c7.6-2.2,12.5-8.1,17.9-13.3c1.4-0.4,2.3-1.8,3.9-1.7c3.8,0.5,7.7,0.2,12.6-0.4c-7.1-5.8-9.6-13.4-13.3-20.3
		c-1.1-2.1-2.8-3.5-4.7-4.9c-5.5-3.9-12-6.3-16.5-11.6c-1.1-1.2-2.6-0.9-4-1.1c-3.8-0.5-7.8-0.2-11.5-1.6c-0.4-3.4,1.8-6.2,2.1-9.3
		c0.1-1.2,1.4-2.6,0.2-3.6c-0.8-0.6-2.2,0.3-3.2,0.7c-0.5,0.2-1,0.3-1.4,0.5c-2.7-2.4-5.2-1.1-7.3,0.7c-2.2,1.8-3.9,4.2-5.9,6.2
		c-0.6,0.6-1.6,1.2-2.5,0.6c-1.1-0.8-0.1-1.7,0.3-2.4c1.4-2.5,2.6-5.1,3.9-7.6c1.3-2.4,1.3-3.1-1.6-3.1c-7.4,0.1-14.8,0.3-22.1-1.5
		c-1.8-0.4-3.2,0.3-4.4,1.8c-5.3,6.3-8.8,13.2-7.2,21.7c0.3,2.5-1.8,4.8-0.1,7.5c7.2,11.4,14.3,23,21.4,34.5c0.8,1.2,1.6,3,3.6,1.3
		c3.5-0.8,6.9-0.2,10.3,0.6C361.6,177.2,366.1,180.4,371.4,181.7z M426.1,58.4c-0.1-0.6-0.5-1.2-1.1-1.3c-0.8-0.1-1.1,0.5-0.9,1.2
		c0.1,0.7,0.5,1.2,1.2,1.2C425.9,59.6,426,59,426.1,58.4z"/>
	<path class="st1" d="M362.7,40.4c-1.2,1.4-3.6,2.1-2.5,4.9c0.4,1-0.9,1.8-2,1.9c-2.9,0-6,0.7-8.5-0.2c-3.2-1.2-6-1.1-9,0
		c-1.5,0.5-3.1,0.6-3.5-1.3c-0.3-1.9,1.4-1.4,2.5-1.5c1.2-0.1,2.1-0.6,1.8-1.9c-0.3-1.5-1.5-1.4-2.5-1c-4.3,1.6-8.7,1.4-13.1,1.3
		c-3.3-0.1-4.7,3.6-8,3.9c-2.3,0.2-4.5,1-6.8,0.1c-2.1-0.8-4.2-0.4-6.5-0.2c-7.7,0.4-15.3-1-23-0.6c-1.7,0.1-1.6-1.2-1.9-2.4
		c-0.7-2.6-2-4.2-4.6-1.8c-1.3,1.2-2.4,1.1-3.2-0.3c-1.3-2-2.3-1.6-3.3,0.3c-0.8,1.5-2.2,2.5-3.8,2.5c-8.7,0-17.1,2.8-25.9,1.8
		c-1.2-0.1-2.1-0.4-2.9-1.6c-2.1-3.4-4.6-3.3-6.4,0.1c-0.3,0.6-0.4,1.4-1.2,1.3c-4-0.2-7.1,3.4-11.3,2.6c-1.3-0.3-3,0.1-3,1.7
		c0,4-1.4,8.1,1.1,11.8c1.3,2,1.4,3.9-0.1,5.8c-0.8,1.1-1.2,2.2-1.3,3.6c-0.1,1.3-0.6,2.6-1.8,3.3c-0.7,0.4-1.4,0-1.6-0.7
		c-0.6-1.4-1.5-2.9-0.4-4.4c1.3-1.6,1.8-3.4,1.5-5.5c-0.1-0.9-0.3-1.9-1.4-2.1c-0.9-0.1-1.1,0.8-1.7,1.3c-3.1,3.3-2.5,7.8-3.6,11.7
		c-0.9,3.1,2.6,2.2,4.5,2.2c0.7,0,1.5-0.7,2,0.4c0.3,0.6,0.2,1.6-0.3,1.8c-4,1.4-3.3,5.5-4.8,8.3c-0.8,1.5-0.9,3.3-3.4,2.5
		c-1.3-0.4-2.1,0.8-2.7,1.8c-0.4,0.8-0.5,1.8-1.7,1.9c-1.2,0.1-2.5,0-2.4,1.8c0.1,1.5,1.5,1.1,2.3,1.6c4.5,2.3,9.2,0.1,13.8,0.4
		c1.8,0.1,1.8-1.9,1.8-3.3c0.1-2.8,0.4-5.3,4.1-2.7c1.8,1.3,3.5,0.6,5.1-0.4c3-1.7,6.2-1.7,9.4-0.6c0.6,0.2,1.6,0.4,1.7,0.8
		c1.5,4.2,5.6,5.1,8.7,7.3c2,1.5,1.8,4.5,3.8,6.2c0.9,0.7,1.6,2.3,2.7,1c1.2-1.3-0.6-1.5-1.3-2.1c-1-0.9-1.8-2.2-1.1-3.5
		c0.9-1.7,2.6-0.5,3.4,0c4,2.8,8.4,2.2,12.8,2.2c6.7,0.1,13.4,8.5,12.8,15.1c-0.4,4,0.1,8.1,0.7,12c1,6.9-0.8,13.3-3.2,19.7
		c-1.1,3-0.7,6.5-3.2,9.1c-1.2,1.3-2,2.6-4.2,1.8c-2-0.7-2.9,0.3-2.6,2.4c0.7,5-1.1,9.3-3.5,13.5c-2.4,4.3-4.5,8.7-6.7,13.1
		c-0.7,1.4-0.8,2.9-0.4,4.5c0.6,2.2,0.2,4.4-2.2,5.7c-3.3,1.8-0.9,4.8-1,7.1c-0.1,2,1.8,4.3,3.4,5.9c1.4,1.4,3.2,1,4.7-0.8
		c2.1-2.5,4.5-4.7,6.7-7.2c1.3-1.5,3.1-2.1,4.9-2.2c2.1-0.1,3.8-0.6,5.1-2.3c0.5-0.6,1.4-1.2,2.1-0.8c3.4,2.1,7.7,0.3,11.1,3.1
		c2.4,2,4.9,0.7,5.4-2.3c0.3-1.8,1.1-2.5,2.8-2.5c2.2,0,4.4-0.1,6.1,1.4c-0.3,2.9-7.5,0.2-4.2,5.6c-4.5,0.3-9.1,0.3-13.5,0.9
		c-6.4,0.9-12.9,1.6-18.3,5.6c-1,0.7-2.1,1.2-1.1,2.6c-5.8,2.6-10.8,6.4-15.6,10.5c-1.8-0.4-2.9,0.8-4,2c-5.1,5.5-9.2,11.8-11.4,19
		c-3.6,11.4-6.8,23-10.4,34.5c-2.7,8.8-4.3,18-9.8,25.8c-1.9,2.7-2.9,6.1-4.4,9.1c-1.6,3.1-1.7,6.2-1,9.5c0.6,2.9,0.7,6,1.2,8.9
		c1.1,5.9,1.5,12,6.3,16.4c4,3.6,8,7.2,12.8,9.7c1.1,0.6,2.7,0.6,2.8,2.4c-12.6,1.6-21.5-3.3-26.8-14.9c-0.7-1.5-1.5-3.1-2.2-4.6
		c-0.5-2-1.1-4-1.5-6c-3-16.7-4.8-33.5-3-50.5c1.3-1.7,2.2-3.6,2.9-5.5c3.6-4.9,6.2-10.5,9.2-15.9c7.8-14.2,15.5-28.4,23.5-42.5
		c6.8-12,13.5-24,17.6-37.4c2-6.5,3.2-13.4,7.1-19.4c5.2-8,9.8-16.3,14.7-24.5c1.3-2.2,2-4.5,1.4-7.1c1-8.3-1.2-15.9-5.1-23.2
		c-1.2-2.3-2.8-3.2-5.4-2.6c-3.3,0.8-6.6,1.5-9.9,2c-4.1,0.6-7.9,0.5-10.9-3.3c-2.6-3.3-6-5.8-8.7-9c-2.1-2.5-4.1-2.4-6.8-1.3
		c-9.2,3.6-18.5,6.9-27.6,10.6c-9.8,4.1-20.5,6-29.5,12c-1,0.7-1.7,0-2.6-0.2c0.2-1,0.8-1.8,1.6-2.4c2.7-0.2,3.2-2.9,4.7-4.3
		c7.3-7.1,14.3-14.6,22.5-20.6c-0.6-1.2-1.5-0.9-2.2-1.1c-3.6-1.2-3.8-1.8-1-4.5c1.3-1.3,2.9-2.4,4.5-3.8c-1.6,0-2.9-0.1-4.2,0
		c-1.2,0.1-2.7,1.4-3.5-0.1c-0.8-1.4,0.5-2.7,1.4-3.8c4.3-5.2,8-10.9,11.9-16.4c1.9-2.7,0.7-3.4-1.8-3.6c-0.9-1-2.2-1.3-3.2-1.2
		c-8.4,0.4-16.9,0.9-25.3,1.4c-1.2,0.1-1.7,0.9-2.4,1.8c-9.3,13.5-18.7,27-28,40.6c-8.6,12.6-16.9,25.4-25.9,37.6
		c-0.4,0.6-0.8,1.5-1.7,0.6c2.6-6,4.7-12.3,7.6-18.3c-6.1,5.8-11.3,12.2-17.5,17.8c-10.2,0-20.5,0-31.9,0c3.9-5.2,7.2-9.5,10.3-13.9
		c0.7-1,2.2-2,1.6-3.4c-0.7-1.7-2.5-0.8-3.8-1c-8.4-0.8-16.5,1.9-24.8,1.5c1.6-1.8,3.4-3.3,5.5-4.2c14.2-6.1,26.3-15.5,39.1-23.9
		c2,2.3,2.5,4.8,1.2,7.6c-0.9,1.8,0,3.3,0.6,4.9c0.5,1.5,0.5,2.8-1.3,2.9c-4.5,0.3-5.4,3.6-5.8,7c-0.3,2.5-1.2,4.4-3.4,5.8
		c-1.8,1.1-3.3,2.4-5.3,3.2c-2.7,1.1-3,4.6-0.6,8.1c1.8,2.6,2.8,0,4.2-0.9c3.1-2,6.4-1.5,9.7-0.6c1.4,0.4,1.9,3.5,4,1.7
		c1.2-1,2.2-2.6,2.9-4.1c0.8-1.8,1.3-3.7,1.9-5.6c0.6-2.1,1-4.1,3.5-5.2c1.7-0.8,2.8-6.9,1.7-7.6c-0.9-0.6-2.8-0.6-2.5-1.9
		c0.4-1.5,2.4-1,3.7-1.5c2.6-1.1,5.8-0.5,7.8-2.9c3-3.7,6.1-4,9.2-0.7c1,1,2,1.8,2.7,0.2c2.2-4.5,6.2-8.2,6.8-13.6
		c0.2-1.4,1.4-2.6,1.5-3.9c0.6-4.5,9.2-5,5.6-11.5c2.8-2.9,3.9-7.7,9.2-7.5c1.4,0,2.3-0.4,2.3-2c0-1.3,0.1-3.1-1.5-3.2
		c-2.9-0.1-6.1-2.1-8.5,1.4c-0.8,1.1-2.2,1.9-3.4,2.6c-1.6,1-2.6,1.9-1.8,4c0.6,1.5-0.1,3.7-2.1,3.2c-2.2-0.7-4.3,0.5-6.5-0.3
		c-1.5-0.6-2.6,0-3,1.9c-0.5,2.4-1.6,5-4.7,4.9c-2.4-0.1-4.1,1.1-5.4,2.7c-1.7,2.1-3.2,3.4-6.1,1.8c1.8,2.2,1.7,5.6,5.2,6.1
		c1.1,0.1,0.7,1.4-0.1,1.7c-3.7,1.7-5.1,6-8.9,7.4c-1.4,0.5-1.6,1.8-1.9,3.1c-0.5,2.7-2.4,3.2-4.5,1.4c-1.7-1.5-2.8-3.1-1.6-5.8
		c1.3-2.9-0.2-5-3.4-5.8c4.6-4.5,10.3-7.5,15.6-11.1c15.3-10.1,30.3-20.7,45-31.8c4.4-3.3,9.3-6.1,12.8-10.2
		c5.6-6.5,11.8-5.3,18.7-3.5c9.4,2.5,18.7,5.6,28.6,5.5c6.2-0.1,12.3-1.1,18.1-2.7c13.1-3.6,26.1-4.5,39.3-1.1
		c11.3,2.9,22.5,2.8,33.5-0.3c14.5-4.1,28.4-0.7,42.4,2.2C358.7,39.6,360.7,40,362.7,40.4z M203.7,44.7c0-0.6,0.1-1.8-1-2.4
		c-1.1-0.6-2.1,0.1-2.8,0.8c-1.4,1.3-2.5,2.9-3.8,4.4c-1.6,1.8-3.7,2-5.1,0.3c-2-2.4-4.4-3-7.2-2.9c-1.2,0.1-2.6-0.2-2.5-1.8
		c0.4-4.8-1.9-2.3-3.5-1.3c-2.5,1.7-1,5.9-4.3,7.1c0,0,0.1,0.5,0.2,0.7c1.2,3.1,2,7,6.8,3.9c0.2-0.1,0.6-0.1,0.8,0
		c5.8,2.8,11.5-3,17.4-0.3c0.2,0.1,0.7,0,0.7-0.2C200.1,50.1,203.5,48.4,203.7,44.7z"/>
	<path class="st2" d="M129.8,272.7c0-3.1-0.1-6.3-0.1-9.4c0.3-0.6,0.4-1.2-0.3-1.6c1.9-3.1,3.7-6.1,5.6-9.2
		c2.4-3.9,3.5-8.5,6.4-12.1c0.5,2.6,0.2,5.2,0.1,7.8c-0.3,8.1-1.3,16.1-0.4,24.2c1.1,9.7,3.7,18.5,11,25.7
		c6.5,6.4,13.1,12.8,19.9,18.8c4.6,4.1,8,9.3,13,13c5.4,6.1,11.3,11.7,17.2,17.3c0.9,0.4,0.8,1.3,1.1,1.9
		c4.6,11.7,12.8,18.3,25.6,18.6c1.7,3.5,5.2,4.1,8.4,4.6c5.9,0.9,11.6,1.7,15.3,7.1c0.4,0.6,1.2,1,1.9,1.3
		c12.7,6.1,25.8,10.6,40,11.2c12.7,0.5,24.5-2.8,36.1-7.5c3.3-1.3,6.4-3.6,10.2-3.6c-1.7,1.1-2.8,2.7-3.8,4.4
		c-5.3,9.2-10.6,18.3-15.7,27.6c-2.8,5.1-6.6,9.7-8.1,15.6c-0.2,0.4-0.3,0.8-0.5,1.2c-15.7,4.2-31.2,9.4-47,13.1
		c-0.8-1.2-1.7-2.3-2.4-3.5c-9.7-16.7-19.5-33.3-29-50.1c-2.9-5.1-5.8-9.5-12.3-9.6c-0.4,0-0.8-0.2-1.1-0.3
		c-15.2-7.3-31-13.7-44.4-24.3c-0.8-0.8-1.7-1.5-2.5-2.4c-12.1-15.2-24.4-30.3-31.9-48.6C137.9,293.6,133.1,283.5,129.8,272.7z"/>
	<path class="st3" d="M176.5,355c13.4,10.6,29.2,17,44.4,24.3c0.3,0.2,0.7,0.3,1.1,0.3c6.5,0.1,9.4,4.5,12.3,9.6
		c9.5,16.8,19.3,33.4,29,50.1c0.7,1.2,1.6,2.3,2.4,3.5c-6.9,2.5-14.1,2.8-21.2,4.1c-6,1.1-12.1,2.1-18.1,3.1
		c-2.4,0.3-4.2-1.2-6.2-1.9c-9.8-3-18.2-8.7-27.2-13.4c-6-3.1-11.4-6.4-15.2-12.1c0.1-1.3,0.8-2,2.1-2.4c9.1-2.7,18.3-5.2,27.2-8.2
		c2.6-0.9,5.6-1.5,8-3.5c-1.3-1.3-2.7-0.8-3.9-0.8c-9.8,0-19.6-0.1-29.4,0c-2.2,0-3.6-0.6-4.7-2.6c-4.3-8-8.9-15.9-13.4-23.8
		c-2.7-4.8-5.8-9.4-7.7-14.7c4.4-0.1,7.9-2.8,11.9-3.3c0.5-0.1,1.1-0.7,1.4-1.3C171.2,359,173.7,356.8,176.5,355z"/>
	<path class="st4" d="M464.6,275.8c1.7,3.5,1.1,7.5,1.3,11.1c0.5,9.5,1.9,18.9,2,28.4c0,10.2,2.5,20.1,4.1,30.1
		c0.6,3.8,1.5,7.6,2.5,11.4c0.6,2.4,0.1,4.4-1.6,6.1c-12.5,13.3-23.2,28-36,41.1c-5.4,5.5-10.3,11.4-16.2,16.3
		c0.2-1.2,0.3-2.3,0.6-3.4c3.6-12.1,7.7-24.1,12.1-35.9c2.2-5.9,4.2-11.9,6.3-17.9c-2.5,1.8-4.4,3.9-6.2,6.1
		c-7.5,9.3-14.9,18.8-22.9,27.7c-1.8,2-3.7,2.7-6.6,2c-11.4-2.7-22.8-5-34.2-7.7c-2.2-0.5-3.1,0.1-3.9,1.9c-4.8-0.1-4.3-4.2-5.4-7.1
		c0.8-4.1,3.9-5.2,7.5-5.4c3.1-0.2,5.9-1,8.6-2.3c8.7-4.2,17.4-8.4,25.9-13c5.6-3,11.6-5.7,16-10.5c12.1-13.2,22.5-27.8,30.7-43.7
		C454.9,299.4,459.5,287.5,464.6,275.8z"/>
	<path class="st4" d="M115,138.2c1,0.9,1.3,0,1.7-0.6c9-12.3,17.3-25,25.9-37.6c9.2-13.6,18.6-27,28-40.6c0.6-0.9,1.2-1.8,2.4-1.8
		c8.4-0.5,16.9-1,25.3-1.4c1,0,2.3,0.3,3.2,1.2c-1.3,3.9-3.6,7-7.1,9.1c-6.8,2.2-13.7,4.4-20.5,6.6c-1.8,0.4-4.3-0.9-5.2,1.6
		c-2.6,7.1-6.2,13.9-8,21.3c-1,2.3-2,4.6-1.5,7.1c-2.7,5.9-5.4,11.8-7.1,18.2c-2.9,11.1-5.9,22.2-10.3,32.8
		c-0.7,1.8-1.2,3.7-1.4,5.7c-1.5,11.6-3.4,23.2-5.6,34.8c-3.5,18.3-8.9,35.9-19.3,51.7c-6,9.2-14.1,16.4-21.3,24.5c0-2,0-4-0.1-6.1
		c1.6-0.8,1.8-2.4,2.2-3.9c2-7.5,4.2-15,6.2-22.5c3.8-14,9.2-27.6,9.5-42.4c0.3-18.2,1-36.4,1.6-54.6
		C113.7,140,114.3,139.1,115,138.2z"/>
	<path class="st5" d="M176.5,355c-2.9,1.8-5.3,4-6.9,7.1c-0.3,0.5-0.9,1.2-1.4,1.3c-4.1,0.5-7.5,3.2-11.9,3.3
		c1.8,5.3,4.9,9.9,7.7,14.7c4.5,7.9,9,15.8,13.4,23.8c1.1,2.1,2.5,2.7,4.7,2.6c9.8-0.1,19.6-0.1,29.4,0c1.2,0,2.6-0.5,3.9,0.8
		c-2.4,2-5.4,2.6-8,3.5c-9,3-18.1,5.6-27.2,8.2c-1.3,0.4-2,1.1-2.1,2.4c-2.6-0.4-4.4-2.3-6.1-4c-14-13.5-26.3-28.4-38.8-43.2
		c-3.7-4.4-7.2-8.9-10.9-13.2c-1.6-1.9-2.1-3.8-1.5-6.4c3.9-17.4,6.7-34.9,7.5-52.8c0.4-10.1-0.1-20.3,1.9-30.3
		c3.2,10.8,8.1,20.9,12.4,31.3c7.5,18.3,19.8,33.3,31.9,48.6C174.8,353.5,175.7,354.2,176.5,355z"/>
	<path class="st6" d="M115,138.2c-0.8,0.8-1.3,1.7-1.4,2.9c-2.1,1.7-2,4.2-2.3,6.4c-3.4,25.1-6.6,50.3-10.8,75.3
		c-1.6,9.2-2.7,18.6-4.1,27.8c-0.5,0-1,0-1.6,0.1c-2.5-7.3-5.7-14.3-9-21.2c-1.8-3.9-5.4-5.9-8.7-7.6c-7.8-4-10.9-11.5-15.6-18
		c-7.9-11.1-9-24.6-13.7-36.8c-1.4-3.6-2.8-7.3-3.1-11.3c4-3.9,7.9-7.9,11.9-11.8c1-0.9,1.8-2.6,3.5-1.3c2.4,1.7,4.7,3.3,5.7,6.5
		c3,9.9,6.8,19.4,11.4,28.6c2.1,4.2,2.5,4.3,5,0.3c8.2-13.2,16-26.5,22.9-40.5c6.2-5.5,11.4-12,17.5-17.8
		C119.8,126,117.7,132.2,115,138.2z"/>
	<path class="st6" d="M464.6,275.8c-5.1,11.7-9.7,23.7-15.6,35c-8.3,16-18.6,30.5-30.7,43.7c-4.4,4.8-10.4,7.5-16,10.5
		c-8.5,4.5-17.2,8.7-25.9,13c-2.7,1.3-5.6,2.2-8.6,2.3c-3.6,0.2-6.7,1.3-7.5,5.4c-3,4.5-5.3,9.5-9.6,13.2c-2.5,2.2-4.3,4.9-5.6,7.9
		c-1.8,4.2-4.3,7.7-8.3,10c-2.2,1.3-4.1,3.2-6.4,4.5c-5.5,3.1-10.5,7.3-17.3,7.3c1.4-5.8,5.2-10.4,8.1-15.6
		c5.1-9.3,10.4-18.4,15.7-27.6c1-1.7,2-3.3,3.8-4.4c2.6-0.8,4.4-3.5,7.3-3.2c8.8,1.1,14.3-4,19.3-10.1c6-0.4,11.4-2.4,16.2-6.1
		c5.6-4.4,8.6-10.3,10.8-16.9c5.2-3.5,9.3-8.1,13.1-13c11.8-11.4,23.8-22.6,35.4-34.1c4.1-4,7.1-8.8,8.7-14.6
		c3.7-12.7,2-25.6,1.6-38.4c0-1.3-1.2-2.9,1-3.6c3.4,6.5,6.4,13.2,10.4,19.4c0.2,3.6,0.5,7.1,0.7,10.7
		C465.4,272.8,465.3,274.3,464.6,275.8z"/>
	<path class="st7" d="M550,155.8c-1.1,7.1-4.4,13.6-6.1,20.6c-0.8,3.4-2.3,6.7-2.9,10.1c-1.6,8.8-7.7,15.3-11.3,23
		c-2.9,6.2-8.3,9.6-13.4,13.1c-8,5.5-10.9,13.9-14,22.3c-0.4,1.2-0.5,2.6-1.7,3.4c-0.2-0.3-0.5-0.6-0.6-1
		c-1.9-14.8-3.8-29.7-5.6-44.5c-1.5-12.1-3.1-24.2-4.5-36.4c-0.7-5.7-1.2-11.5-1.8-17.4c2.1,0.4,2.3,1.8,3.1,2.8
		c6.9,9.3,13.7,18.7,21.1,27.6c2.2,2.6,3.8,2.1,5.1-0.8c1.7-3.8,3.6-7.6,5.1-11.4c2.5-6.3,4.9-12.6,7.4-18.9
		c2.1-5.5,6.1-6.4,10.2-2.4C543.2,149.3,546.6,152.5,550,155.8z"/>
	<path class="st1" d="M550,155.8c-3.4-3.3-6.8-6.5-10.1-9.8c-4-4-8-3.1-10.2,2.4c-2.4,6.3-4.8,12.7-7.4,18.9
		c-1.6,3.9-3.4,7.6-5.1,11.4c-1.3,2.9-2.9,3.4-5.1,0.8c-7.5-8.9-14.2-18.3-21.1-27.6c-0.7-1-1-2.5-3.1-2.8
		c0.6,5.9,1.1,11.7,1.8,17.4c1.5,12.1,3,24.2,4.5,36.4c1.9,14.8,3.7,29.7,5.6,44.5c0,0.3,0.4,0.7,0.6,1c-0.1,1.6-0.1,3.1-0.2,4.7
		c-1,0-2.1,0-3.1,0c-2.7,0.1-5.3,0-3.8-4c0.3-0.8-0.3-1.4-0.9-2c-4.7-4-7.7-3.4-10.1,2.2c-0.1,0.2-0.3,0.4-0.5,0.6
		c-2.2-2.3-3.7-4.9-5.1-7.7c4-0.4,5.8-3,6.6-6.6c0.2-1,0.1-2.3,1.3-2.5c1.4-0.3,2,0.9,2.5,2c1,2.2,1.4,4.8,3.2,6.6
		c0.5,0.5,1.1,1.2,2,0.8c1.1-0.5,1-1.3,0.7-2.3c-1.1-3.5,0.1-7.5-0.7-10.6c-1.4-5.6,0.6-11.1-1.2-16.4c-0.1-0.2,0-0.6-0.1-0.8
		c-5.2-3.7-2.1-8.4-1.7-12.8c0.1-1,0.3-1.8-0.5-2.5c-1.1-0.9-1.8-0.2-2.6,0.7c-1.3,1.5-2,0.7-2-0.9c-0.1-1.7,0-3.4,0-5.1
		c0-1,0.2-2.1-0.5-3c-4.9-6.6-2.6-13.8-1.6-20.9c1.1-8.2,1.4-16.2-4.9-22.9c-3.2-3.4-2.9-3.6,1.3-5c2.1-0.7,1.9-1.7,0.6-3.1
		c-1.8-2.1-4.3-1.8-6.5-2.2c-8.7-1.4-7.7-1.9-6.8-9.7c0.4-3.1-0.1-5-1.7-7.1c-0.9-1.1-2-1.8-0.6-3.6c1-1.3,0-3.1-1.6-3.2
		c-2.7-0.2-2.7-1.8-2.6-3.8c0.1-1.8-0.1-3.7,0-5.5c0.2-1.9-1.1-4.7,1.8-5.4c2.8-0.7,6.1-1.6,8.5,0.9c3.2,3.3,6.9,4.9,11.4,5
		c3.1,0.1,3.5,2.9,4,5c0.6,2.5,1.6,4.5,4.2,5c2.9,0.4,5.4-0.6,7.2-3c1.1-1.5,1.8-3.2,2.9-4.6c1-1.3,0.1-2-0.7-2.6
		c-2.4-1.7-2.4-3.4-0.2-5.2c6.2,3.3,11.9,7.4,17.8,11.3c4.1,2.8,8.4,5.2,13.1,6.9c5.9,2.2,10.6,6.1,14,11.5
		c2.6,4.1,5.6,7.8,7.9,12.1c1.8,3.4,2.3,6.5,1.1,10C551.3,151,550.7,153.4,550,155.8z M546.1,142.4c-0.9-2.3-2-3.9-1.6-5.8
		c0.3-2.1-0.5-3.4-2.7-4c-2.5-0.7-4-2.7-4.8-5.3c-1.2-3.9-2.9-4.6-6.4-2.7c-2.5,1.4-4.6,1.2-6.9-0.2c-2.5-1.4-5.1-3.2-7.9-3.2
		c-2.9,0-4.1-1.7-5.5-3.5c-0.8-1-1.5-2.1-0.5-3.1c0.9-0.9,2,0.1,2.8,0.7c3.6,2.8,7.8,4.6,11.7,6.9c1.9,1.1,3.8,1.7,5.9,0.5
		c0.8-0.4,1.1-1.1,1-2c-0.1-1-0.9-1.4-1.7-1.2c-3.5,0.6-6.1-1.4-8.6-3.1c-2.1-1.4-5.4-1.7-6.4-3.6c-1.5-2.9-2.9-1.9-4.6-1
		c-1.1,0.6-2.4,1-3.5,1.5c-5,2.4-11.7,2.8-13.2,10c-0.1,0.4-0.8,0.6-1.2,0.9c-4.1,2.7-5.2,7.2-3.2,11.7c2.6,5.8,7.4,9.9,10.6,15.2
		c1,1.7,2.8,3.7,4.5,4c3.4,0.7,3.6,2.8,3.2,5.2c-1,5.2,1.4,7.8,6,9.5c2,0.7,2.7,0.1,3.2-1.5c0.3-1.1,0.5-2.4,0.2-3.5
		c-1.6-5.3,2.7-9.2,3.4-13.9c0.1-0.9,1.2-1.2,1.9-0.8c2.3,1.1,2.8-0.6,3.1-2.1c1-4.8,4.6-6.9,8.5-8.9c1.9-1,3.5-1.2,5.3,0.4
		C540.4,141.4,542.9,141.7,546.1,142.4z M463.9,102.4c1.9,6,3.2,11.4,7.1,16c4.9,5.6,8.5,12.3,13.6,18.1c0.3-0.6,0.4-0.8,0.4-1.1
		c-0.4-8.9-2.5-17.5-3.5-26.4c-0.2-1.5-1.2-2.3-2.5-2.6C474.1,105.2,469.3,103.9,463.9,102.4z"/>
	<path class="st8" d="M94.3,270.7c7.2-8,15.2-15.3,21.3-24.5c10.4-15.8,15.8-33.3,19.3-51.7c2.2-11.5,4.1-23.1,5.6-34.8
		c0.3-1.9,0.7-3.9,1.4-5.7c4.4-10.6,7.4-21.7,10.3-32.8c1.7-6.4,4.4-12.3,7.1-18.2c5.1-4.8,10.1-9.6,15.3-14.2c3-2.6,5.6-5.7,9.6-7
		c-2.3,5.4-6.1,10-9.4,14.8c-3.6,3-7.7,6.2-8.8,10.6c-1.6,6.1-3.3,12.3-4.4,18.5c-0.1,0.2-0.2,0.4-0.3,0.5c-0.5,0.1-0.7,0.5-0.6,1
		c-0.8,1.8-1.5,3.6-2.4,5.3c-6.7,12.4-10.9,25.2-7.9,39.5c0.1,1.6,0.1,3.1,0.2,4.7c0.4,6.6-1.2,12.9-3.2,19.1
		c-1.9,6.1-4,12.1-3.7,18.6c-0.9,8.6-0.3,17.4-2.2,25.9c-2.9,3.6-4,8.2-6.4,12.1c-1.9,3.1-3.8,6.1-5.6,9.2c-0.3,0.5-0.5,1-0.8,1.5
		c-5.2,7.2-10.6,14.2-18,19.2c-0.2,0.1-0.4,0.3-0.6,0.5c-8.9,6.1-13.3,4.2-15.2-6.7C94.4,274.3,94.4,272.5,94.3,270.7z"/>
	<path class="st8" d="M476.8,242.2c1.3,2.8,2.9,5.4,5.1,7.7c1.2,2.1,2.6,4,4.4,5.6c1.8,2.7,4,4.9,6.5,7c0.3,0.3,0.5,0.5,0.8,0.8
		c2.3,2.4,4.5,4.9,6.8,7.3c0.3,5.2-0.7,10-4.2,14.1c-2,2.4-4,2.2-6.5,0.9c-8.1-4.3-14.5-10.5-19.9-17.8c-1.8-2.4-3.4-4.8-5.2-7.2
		c-4-6.2-7-12.9-10.4-19.4c-0.9-3.3-2-6.5-2.1-9.9c-0.2-5.9-0.2-11.7-1.1-17.6c0.2-3.9-0.6-7.7-1.7-11.5c-2.8-9.3-6.2-18.5-5.1-28.5
		c0.1-0.6,0.1-1.3,0.2-1.9c0.9-3.2,0.6-6.6,0.8-9.9c0.5-0.7,0.4-1.5,0.2-2.3c0.4-3.7-0.6-7.2-1.7-10.7c-2.5-7.5-6.3-14.5-9.8-21.5
		c-1.2-6.3-3.2-12.5-3.9-19c-0.1-1-0.8-2-1.4-2.7c-2.7-3.1-5.3-6.4-8.5-9c-3.2-5-6.3-9.9-9.5-14.9c4.8,1.4,7.9,5.2,11.5,8.2
		c3.8,3.2,7.5,6.7,11.2,10c0.7,0.8,1.5,1.6,2.2,2.5c1.1,2.2,2.3,4.4,3.4,6.7c0.1,0.3,0.1,0.6,0.2,0.8c1.3,3.7,2.6,7.5,3.9,11.2
		c0.7,2.3,1.3,4.6,2,6.9c0.5,2.7,1.1,5.4,2.3,7.9c0.1,0.5,0.3,1,0.4,1.5c0.2,0.4,0.3,0.7,0.5,1.1c0,0.9,0,1.7,0.7,2.4
		c0.4,1.5,0.6,3.1,1.1,4.5c2.3,6.1,4.8,12,5.4,18.6c0.4,5.3,1,10.6,2.4,15.8c0.1,0.5,0.1,1.1,0.2,1.6c0.1,0.4,0.2,0.8,0.4,1.2
		c0,0,0,0.3,0,0.3c0,1.9,0.1,3.7,0.9,5.5c0.1,0.5,0.1,1.1,0.2,1.6c0.1,0.4,0.3,0.8,0.4,1.3c0.1,0.9,0.3,1.8,0.4,2.7
		c0.1,0.4,0.3,0.8,0.4,1.2c0.1,0.9,0.3,1.8,0.4,2.7c0.1,0.4,0.3,0.8,0.4,1.2c1.8,11.9,5.2,23.3,10.5,34.1c0.6,1.1,1.2,2.2,1.7,3.3
		c0.4,0.7,0.9,1.5,1.3,2.2c0.2,0.3,0.4,0.6,0.6,1c-0.1,0.3,0,0.5,0.3,0.6c0.2,0.3,0.4,0.5,0.6,0.8
		C476.5,241.6,476.6,241.9,476.8,242.2z"/>
	<path class="st7" d="M313.3,428.6c6.8,0,11.8-4.2,17.3-7.3c2.2-1.3,4.1-3.2,6.4-4.5c4-2.4,6.5-5.8,8.3-10c1.3-3,3.1-5.7,5.6-7.9
		c4.2-3.6,6.6-8.6,9.6-13.2c1.1,2.9,0.7,7,5.4,7.1c-1.6,5.6-3.9,11-6.7,16.1c-2.9,5.3-2.8,5.4,2.9,7.3c13.7,4.4,27.8,7.7,38.5,18.4
		c-5.9,4.8-12.1,9.1-19.5,11.4c-7.3,2.3-14.5,4.9-21.7,7.4c-1.4,0.5-2.8,0.5-4.2,0.6c-2.1-0.3-3.8-1.7-5.7-2.5
		c-8.5-3.5-17.1-7-26.4-7.8c-0.6-2.9-3.2-4.2-5-6.1c-2.2-2.3-4.8-4.3-5-7.9C313,429.4,313.1,429,313.3,428.6z"/>
	<path class="st1" d="M400.4,434.6c-10.7-10.7-24.8-14-38.5-18.4c-5.7-1.8-5.8-2-2.9-7.3c2.8-5.2,5.1-10.5,6.7-16.1
		c0.8-1.7,1.7-2.4,3.9-1.9c11.4,2.7,22.8,5,34.2,7.7c2.9,0.7,4.8,0,6.6-2c8-8.9,15.4-18.4,22.9-27.7c1.8-2.2,3.7-4.3,6.2-6.1
		c-2.1,6-4.1,12-6.3,17.9c-4.3,11.9-8.5,23.8-12.1,35.9c-0.3,1.1-0.4,2.3-0.6,3.4c-5,4.4-10.2,8.6-15.7,12.4
		C403.5,433.6,402.1,434.4,400.4,434.6z"/>
	<path class="st9" d="M312.8,429.8c0.2,3.6,2.8,5.5,5,7.9c1.8,1.9,4.4,3.2,5,6.1c-2.1,3.3-4.8,6.1-7.1,9.2
		c-2.4,3.3-6.3,6.1-4.6,11.2c-5.2-0.2-10.4,0.8-15.5,0.7c-11.6-0.2-23.2-1.8-34.6-3.8c-12.1-2-23.5-5.9-34.5-11.1
		c6-1,12.1-2,18.1-3.1c7.1-1.3,14.4-1.6,21.2-4.1C281.7,439.2,297.1,434,312.8,429.8z"/>
	<path class="st7" d="M105.2,137.7c-6.8,13.9-14.7,27.3-22.9,40.5c-2.5,4-3,3.9-5-0.3c-4.6-9.2-8.4-18.8-11.4-28.6
		c-1-3.3-3.3-4.8-5.7-6.5c-1.7-1.2-2.6,0.4-3.5,1.3c-4,3.9-7.9,7.8-11.9,11.8c-3.7-8.7-3.1-16.6,3.4-24.1c2.9-3.4,4.9-7.6,8.3-10.7
		c8.3,0.3,16.5-2.4,24.8-1.5c1.3,0.1,3.2-0.7,3.8,1c0.5,1.3-0.9,2.4-1.6,3.4c-3.1,4.4-6.4,8.7-10.3,13.9
		C84.7,137.7,94.9,137.7,105.2,137.7z"/>
	<path class="st0" d="M102.6,92c3.3,0.8,4.8,2.9,3.4,5.8c-1.2,2.7-0.2,4.2,1.6,5.8c2.1,1.9,3.9,1.3,4.5-1.4c0.3-1.4,0.4-2.6,1.9-3.1
		c3.9-1.4,5.3-5.7,8.9-7.4c0.7-0.3,1.1-1.6,0.1-1.7c-3.5-0.5-3.4-3.8-5.2-6.1c2.9,1.6,4.4,0.3,6.1-1.8c1.2-1.5,2.9-2.8,5.4-2.7
		c3.1,0.1,4.2-2.4,4.7-4.9c0.4-1.9,1.5-2.5,3-1.9c2.2,0.8,4.3-0.4,6.5,0.3c2,0.6,2.6-1.6,2.1-3.2c-0.8-2.2,0.2-3.1,1.8-4
		c1.2-0.7,2.6-1.5,3.4-2.6c2.4-3.5,5.7-1.5,8.5-1.4c1.5,0.1,1.5,1.9,1.5,3.2c0,1.6-0.9,2-2.3,2c-5.2-0.2-6.4,4.6-9.2,7.5
		c3.6,6.5-5,7-5.6,11.5c-0.2,1.4-1.4,2.6-1.5,3.9c-0.6,5.4-4.5,9.1-6.8,13.6c-0.7,1.5-1.7,0.8-2.7-0.2c-3.1-3.3-6.2-3-9.2,0.7
		c-2,2.4-5.2,1.8-7.8,2.9c-1.2,0.5-3.3,0-3.7,1.5c-0.4,1.3,1.6,1.3,2.5,1.9c1,0.7-0.1,6.8-1.7,7.6c-2.4,1.1-2.9,3.1-3.5,5.2
		c-0.6,1.9-1,3.8-1.9,5.6c-0.7,1.5-1.6,3.1-2.9,4.1c-2.1,1.8-2.6-1.3-4-1.7c-3.3-0.9-6.7-1.4-9.7,0.6c-1.4,0.9-2.5,3.4-4.2,0.9
		c-2.4-3.5-2.1-7,0.6-8.1c2-0.8,3.5-2.1,5.3-3.2c2.2-1.4,3-3.3,3.4-5.8c0.5-3.4,1.3-6.8,5.8-7c1.8-0.1,1.8-1.4,1.3-2.9
		c-0.5-1.6-1.4-3.1-0.6-4.9c1.4-2.8,0.9-5.3-1.2-7.6C101.4,92.4,101.9,92.1,102.6,92z"/>
	<path class="st1" d="M96.4,250.7c1.3-9.3,2.5-18.6,4.1-27.8c4.3-25,7.4-50.2,10.8-75.3c0.3-2.3,0.3-4.8,2.3-6.4
		c-0.5,18.2-1.3,36.4-1.6,54.6c-0.2,14.8-5.7,28.4-9.5,42.4c-2,7.5-4.2,15-6.2,22.5c-0.4,1.5-0.6,3.1-2.2,3.9
		c-0.5-2.9,0.9-5.5,0.8-8.4C97.6,255,96,252.6,96.4,250.7z"/>
	<path class="st5" d="M311.1,464.2c-1.6-5,2.2-7.9,4.6-11.2c2.3-3.1,5-5.9,7.1-9.2c9.4,0.7,17.9,4.3,26.4,7.8
		c1.9,0.8,3.6,2.2,5.7,2.5c-0.1,0.8-0.7,1.2-1.5,1.6c-11.4,5.2-23.7,6.5-35.9,7.8C315.4,463.6,313.3,464.6,311.1,464.2z"/>
	<path class="st1" d="M469.3,76.2c-0.2,0.5-0.4,0.9-0.6,1.4c-2.6-1.5-6.5,0.5-8.5-3.4c-1.4-2.8-4.3-2.5-5.9,0.4
		c-1.8,3.2-2.5,3.2-5.2,0.3c-1.4-1.5-2.9-2.7-2.7-5.2c0.2-2.3-1.8-2.6-3.6-2.6c-1.4-0.1-2.6-0.3-2.6-2.1c0-6.9-5.8-9.4-10.4-12
		c-3.8-2.2-8.1-4.9-13.1-2.7c-0.8,0.4-1.5-0.3-1.6-1.2c-0.1-1.1-0.1-2.4,1.3-2.3c2.1,0.1,3.6-2.2,5.9-1.1c0.8,0.4,1.2-0.7,1.4-1.5
		c9,5.2,16.9,12.1,25.3,18.1c5.6,4,11.4,7.7,17.2,11.5C467.4,74.4,468.3,75.3,469.3,76.2z"/>
	<path class="st1" d="M420,41c-3.2,0.3-6.3,3.1-9.7-0.4c-1-1.1-4,0.6-5.7,1.6c-2.4,1.5-4.5,1.5-6.5,0c-3.8-3-7.7-0.4-11.6-0.5
		c-0.8,0-1.7,0.7-2.6,0.8c-1.3,0.2-2.9,0-3,1.8c-0.2,1.9,1.6,1.2,2.6,1.5c0.8,0.2,1.6,0.5,1.5,1.5c-0.1,0.9-0.9,0.7-1.5,0.9
		c-2.9,0.5-6.1,3-8.5-1.1c-0.3-0.5-1.7-0.4-2.6-0.5c-2.7-0.2-2.7-0.2-1.6-2.7c0.5-1.2-1.2-1.6-1-2.7c11.1,0.2,21.6-3.4,32.1-6.1
		C409.8,32.8,415.3,35.1,420,41z"/>
	<path class="st0" d="M493.5,263.2c-0.3-0.3-0.5-0.5-0.8-0.8c-0.1-4.9-0.9-5.8-6.5-7c-1.8-1.6-3.2-3.5-4.4-5.6
		c0.2-0.2,0.4-0.4,0.5-0.6c2.4-5.6,5.4-6.3,10.1-2.2c0.6,0.5,1.2,1.2,0.9,2c-1.5,4,1.1,4,3.8,4c1,0,2.1,0,3.1,0
		c0,1.3,0.1,2.6,0.1,3.9c-1.5,0.1-1.8,1.5-2.7,2.3C496.3,260.5,496,263.1,493.5,263.2z"/>
	<path class="st1" d="M494.4,94.2c-0.9,1.1-0.5,3.4-2.7,3.3c-2-0.1-3.9-0.6-4.5-2.9c-0.4-1.3-1.4-1.8-2.5-2.2c-3-1-6-1.9-6.3-5.9
		c-0.1-1.2-1.4-1.2-2.4-1.5c-4.2-1.5-4.8-2.6-3.6-6.9C480.3,82.7,487.9,87.8,494.4,94.2z"/>
	<path class="st1" d="M493.5,263.2c2.5-0.1,2.7-2.7,4.2-4c0.9-0.8,1.2-2.3,2.7-2.3c0.4,4.5,2,9.1-0.1,13.6
		C498.1,268.1,495.8,265.7,493.5,263.2z"/>
	<path class="st4" d="M96.4,250.7c-0.4,1.9,1.2,4.3-1.5,5.6c0-1.8-0.1-3.7-0.1-5.5C95.4,250.7,95.9,250.7,96.4,250.7z"/>
	<path class="st5" d="M128.6,263.2c0.3-0.5,0.5-1,0.8-1.5c0.8,0.4,0.6,1,0.3,1.6C129.3,263.3,129,263.2,128.6,263.2z"/>
	<path class="st8" d="M249.2,224c4.8-4,9.8-7.9,15.6-10.5c21.1-6.4,42.3-6.2,63.5-0.6c0,0,0,0,0,0c0.3,0.2,0.5,0.3,0.8,0.5
		c4.2,1.7,7.9,4.4,11.7,6.8c6.7,6.3,11.4,13.8,12.1,23.3c0.2,3.2,0.2,6.5-1.1,9.6c-1.9-1.5-2.5,0.6-3.3,1.4
		c-2.8,2.9-6.1,4.8-10.1,5.5c-3,0.5-4.2-0.7-3.5-3.7c0.7-2.8,1.4-5.5,1.2-8.5c-0.3-5.7-3.9-10.2-8.6-10.5
		c-6.1-0.4-10.2,3.1-11.1,9.4c-0.6,4-1,8-1.7,11.9c-1,5.5,1.2,8.2,7,8.2c5.5,4.5,11.2,6.2,17.8,2.1c2.7-1.7,5.8-2.9,8.7-4.3
		c-5,7.9-10.7,15.3-16.3,22.7c-5.1,5.1-10.8,9.3-17.6,11.7c-3.6,1.3-7.4,2.3-11.1,3.4c-2.7,0-4.5-1.4-3.9-4.1
		c1.4-6.8-0.5-13.4-0.2-20.2c0.2-4.5-0.9-9-1.5-13.5c-0.1-0.8-0.3-1.6-1.2-1.8c-0.9-0.2-1.1,0.5-1.1,1.2c-0.5,7-1.5,14-1.4,20.9
		c0.1,3.8,0.3,7.8,0.6,11.7c0.2,2.9-0.8,4.7-3.3,5.9c-6.8-2.5-14.2-3.4-20.2-7.8c-1.9-1.4-3.6-3.4-6.1-4
		c-6.2-8.4-12.5-16.8-18.7-25.2c4,0.6,7.4,2.8,11,4.3c3.2,1.4,6.5,2,9.7,0.3c2.1-1.1,4-2.6,6-3.9c3.6-0.3,5.6-2.6,5.8-6.8
		c0.2-5.2-0.8-10.3-1.7-15.4c-0.6-3.3-5.8-6.7-9.6-6.7c-4.2,0-8,2.7-9.1,6.5c-1.2,4.1-1.1,8.2,0.4,12.3c0.5,1.4,0.9,2.9-0.3,4
		c-1.2,1.2-2.7,0.8-4,0.3c-1.1-0.4-2.1-1.1-3.1-1.5c-3.4-1-5.2-4.8-9-5.2C239.6,242.7,242.8,233,249.2,224z M249.2,238.1
		c0.7-0.9,1.5-1.8,2.2-2.7c3.3-4.2,6.4-8.6,12.7-5.3c0.3,0.2,0.8,0.1,1.1,0c7.1-2.4,14.6-2,21.8-3.4c13.9-0.3,27.8-0.6,41.3,3.4
		c0.8,0.3,1.9,0.4,2.7,0c4.7-2,7.7,0.4,10.4,3.7c1.4,1.7,2.8,3.3,4.1,5c0.1,0.3,0.2,0.6,0.3,1c0.1-0.1,0.2-0.2,0.2-0.3
		c0-0.4,0-0.8-0.6-0.6c0.6-2.7-0.8-4.8-2-6.9c-4.5-8.2-12.1-12.3-20.6-15c-11.8-3.7-24-2.4-36-2.3c-11.9,0.1-22.6,3.6-31.5,11.7
		C252,229.4,249.3,233.2,249.2,238.1c0,0.1-0.1,0.2-0.2,0.3C249,238.3,249.1,238.2,249.2,238.1z"/>
	<path class="st10" d="M291.3,302.5c2.5-1.1,3.6-3,3.3-5.9c-0.3-3.9-0.5-7.8-0.6-11.7c-0.2-7,0.9-14,1.4-20.9
		c0.1-0.7,0.2-1.4,1.1-1.2c0.9,0.2,1.1,1,1.2,1.8c0.5,4.5,1.6,9,1.5,13.5c-0.3,6.7,1.6,13.4,0.2,20.2c-0.5,2.7,1.2,4.1,3.9,4.1
		c-2.9,10.4-0.9,18.8,8.4,25.6c10.2,7.4,19.6,15.9,29.8,23.3c4.8,3.5,10,6.4,15.8,8.2c7.7,2.6,15.4,2.7,22.8-1
		c6.6-2.9,10.2-8.4,13.2-14.6c0.4,0.2,0.7,0.5,1.1,0.7c-2.1,6.6-5.1,12.5-10.8,16.9c-4.8,3.7-10.2,5.7-16.2,6.1
		c-7.6-0.2-15-1.4-21.9-4.7c-10.2-5.3-19.7-11.6-29.3-18c-2.2-1.5-4.4-1.8-7-1.3c-6.9,1.4-14,1.6-21,0.3c-4.5-0.8-8.3,0.1-12.1,2.7
		c-7.8,5.2-15.8,10.1-23.8,15.1c-7.5,3.3-15.1,6-23.4,5.9c-12.8-0.3-21-6.9-25.6-18.6c-0.3-0.7-0.2-1.6-1.1-1.9
		c0.4-1.8-1.4-3.6-0.1-5.5c0.7,1.5,1.5,3,2.2,4.6c5.3,11.6,14.2,16.5,26.8,14.9c6.8-0.3,12.6-3.2,18.1-7c0.5-0.2,1-0.3,1.4-0.6
		c12.8-9.2,25-19.1,36.7-29.6c2.8-2.5,5.8-5.5,5.5-9.9C292.5,310.3,292.5,306.3,291.3,302.5z"/>
	<path class="st1" d="M393.3,344.1c-2.9,6.2-6.6,11.7-13.2,14.6c-0.1-1.8,0.8-3.5,0-5.4c-0.6-1.3,0.3-2.4,1.8-2.9
		c6.7-2.2,8.4-7.7,4-12.9c-1.2-1.4-1.8-3.1-0.7-4.7c5-6.8,4.3-14.6,4.1-22.2c-0.1-6.4-0.5-12.8-0.7-19.1c-0.1-5.1-1.6-11.8,3.7-15.9
		c4.2-3.3,8.7-6.4,14-7.5c2.8-0.6,6.1-0.8,7.4,3.1c0.5,1.4,0.8,3.7,2.6,3.5c2.1-0.2,5.2-0.8,5.8-2.2c1.5-3.4,5.2-5.5,5.6-9.5
		c0.1-0.5,0.6-1.3,0.4-1.4c-4-4,1.2-6.7,1.4-10.2c0.1-1.5,1.2-3,1.4-4.7c0.2-1.8,0.4-3.9,3.5-3.5c2.1,0.3,2.5-2.1,2.6-3.7
		c0.1-2.4,0.7-4.1,3.2-4.7c1-0.3,1.6-0.9,1.4-2c-0.2-1-1.1-1-1.9-1c-2.9,0-2.9-1.5-2-3.6c1.2-2.8,2.9-6,3.1-8.6
		c0.4-4.5,2.2-9.4-0.3-14c-1.3-2.3-1.2-3.8,1.2-5.9c2.5-2.2,1.2-6-0.3-8.7c-2.8-5-1.4-10.2-1.1-15.4c0.1-2.5,1.8-2.8,3.9-2
		c-1.1,10,2.3,19.2,5.1,28.5c1.1,3.8,1.9,7.5,1.7,11.5c-2.1,1.1-1.5,3.4-2,5.1c-5.8,19.9-10.3,40.3-23.5,57.2
		c-5.1,6.5-4.6,6.6-11.2,1.6c-3.7-2.8-7.9-3.6-12.4-1.4c-3.6,1.8-5.5,4.2-4.4,8.3c0.2,2.2,0.5,4.4,0.6,6.6
		C398.5,308.9,397.7,326.7,393.3,344.1z"/>
	<path class="st1" d="M438.8,109.2c-1.1-2.2-2.3-4.4-3.4-6.7c0.5-1.9-0.2-3.6-0.9-5.3c-2.5-6.7-5.2-13.3-7.6-20
		c-1.1-3.1-3.1-4.6-6.4-4.5c-2-0.6-4.1-1.2-6.1-1.9c-0.2-1.9,0.5-3.6,1.1-5.3c0.9-2.3-0.1-4.2-1.8-5c-5.6-2.8-11.8-3.6-18-3.7
		c-1.7,0-3,1-1.2,3.1c2,2.2,3.7,4.6,5.6,6.9c3.3,4.7,6.5,9.4,9.8,14.1c0.2,0.3,0.5,0.6,0.7,0.9c0,0-0.1,0-0.1,0
		c3.2,5,6.3,9.9,9.5,14.9c1.1,6.6,3.8,12.6,6.6,18.6c2,4.3,3.6,8.8,7.3,12.1c3.5,7.1,7.3,14,9.8,21.5c1.1,3.5,2.1,7,1.7,10.7
		c-2.8,0.2-4.1-1.5-4.3-4c-0.2-2.3-1-4.3-1.8-6.4c-0.6-1.5-2.1-3.7-3.7-2.7c-4.9,3.1-2.2-1.1-2.4-2.3c-0.2-1.4,0-2.9,0-4.3
		c0-4.7,0-4.7-4-2.8c-1.6,0.7-2.5,0.5-3.1-1.5c-1.8-5.4-4.7-10.3-5.6-16.1c-0.3-1.9-2.4-3-3.8-4.4c-2.2-2.2-3.9-4.6-3.9-7.8
		c0-1.7-0.7-3.1-1.9-4.2c-2.8-2.4-3.4-5.6-2.6-8.9c0.4-1.8-0.1-2.8-1.4-4c-2.4-2.3-5.3-4.4-3.9-8.6c0.4-1.2-0.8-2.2-2.6-1.8
		c-2.8,0.7-4.7,0.2-4.9-3.4c-0.1-2.6-2.5-4.2-4.4-5.7c-2.6-2.1-6.5-13.5-5.6-16.7c0.5-1.6,1.6-1.8,3-1.9c4.3-0.2,8.6,0.6,12.8-0.6
		c0.7-0.2,1.9,0.3,2.5,0.9c2,2,4.1,2.5,6.7,1.5c1.4-0.5,2.9-0.4,3.1,1.7c0.2,1.6,1.4,2.6,2.6,3.3c2.8,1.8,4.6,4,4.6,7.6
		c0,2.1,2,2.5,3.7,2.8c4.3,0.8,7.4,3.8,7.9,8.1c0.2,1.8,0.6,3.9,1.9,4.6c3.5,1.9,3.3,5,2.7,7.8c-1,4.8,1.6,8.6,2.9,12.7
		C440.7,105,441.9,107.4,438.8,109.2z"/>
	<path class="st10" d="M356.6,175.2c-3.4-0.7-6.8-1.4-10.3-0.6c-1.8,0-1.7-0.9-1.3-2.2c0.8-2.6,1.6-5.1,2.4-7.7
		c3.3-6.5,6.4-13,9.8-19.4c3.3-6.3,8.2-10.6,15.6-11.3c7.4,0.6,13.8,3.1,19.3,8.2c7.4,6.9,12,16.1,19.1,23.3
		c-1.3,0.7-2.5-0.1-3.3,0.9c-1.6-0.1-2.5,1.3-3.9,1.7c-2.3-0.7-4.2,2.5-6.6,0.6c2.7-3.3,0.1-5.5-1.5-8.8c-2.1,4.4-3.4,8.1-3.5,12.2
		c-1.3,1.1-0.5,3.5-3.1,4c-7.9,1.4-15.5,2.1-23.3-0.9C363.3,174.1,359.7,172.6,356.6,175.2z M363.3,168.2c7.6,8.6,17.4,9.6,24,2.3
		c4.1-4.5,5.9-9.8,5.1-15.8c-0.2-1.5,0-3.3-2.2-3.6c-0.5-0.1-1-0.1-1.5-0.2c-4.5-1.1-4.5-1.1-4.1,3.6c0.3,4.5-3.9,9.9-8.8,11.1
		c-4.3,1.1-10-1.8-12-6.1c-0.5-1.1-0.3-2.5-1.8-3.2C359.5,160.7,360.6,164.6,363.3,168.2z M374.8,156.4c4.1,0,8.2-3.5,8.1-6.9
		c-0.1-3.2-3.4-5.5-7.8-5.5c-4.2,0-7.7,2.4-7.8,5.5C367.2,153.2,370.7,156.4,374.8,156.4z"/>
	<path class="st11" d="M347.4,164.7c-0.8,2.6-1.6,5.2-2.4,7.7c-0.4,1.3-0.5,2.3,1.3,2.2c-2,1.7-2.8-0.1-3.6-1.3
		c-7.2-11.5-14.2-23-21.4-34.5c-1.7-2.7,0.4-5,0-7.5c6.6-3.4,12.1-8.4,18.2-12.5c2.9-1.9,4.9-2,6.8,1c1.1,1.8,2.5,3.4,3.5,5.1
		c1.3,2.2,2,3.3,4.4,0.6c1.5-1.7,3.1-4.6,6.3-4.4c-0.8,1.5-1.7,2.9-2.4,4.4c-4,10.1-6.5,20.7-9.4,31.2
		C347.9,159.3,346.7,161.9,347.4,164.7z"/>
	<path class="st3" d="M357.3,359.7c-5.7-1.8-10.9-4.7-15.8-8.2c-10.2-7.4-19.6-15.9-29.8-23.3c-9.3-6.8-11.3-15.2-8.4-25.6
		c3.7-1.1,7.5-2.1,11.1-3.4c6.8-2.4,12.5-6.6,17.6-11.7c0.4,3.3-2,5.2-3.8,7.4c-1.3,1.6-2.9,3-4.3,4.5c-2,2.1-2.3,4.2-1.3,7.1
		c2.8,8.5,6.1,16.5,10.9,24.1c5.4,8.6,13,15.2,19.7,22.6C354.9,355.1,357,356.8,357.3,359.7z"/>
	<path class="st10" d="M321.8,266.9c-5.8,0-8.1-2.8-7-8.2c0.7-3.9,1.2-8,1.7-11.9c0.9-6.3,5-9.8,11.1-9.4c4.6,0.3,8.3,4.8,8.6,10.5
		c0.2,2.9-0.5,5.7-1.2,8.5c-0.7,3,0.4,4.2,3.5,3.7c4-0.7,7.3-2.6,10.1-5.5c0.8-0.8,1.4-2.9,3.3-1.4c-0.5,3.1-0.7,6.2-2.3,8.9
		c-4.3-0.2-8,2-11.9,3.2c-7,2.2-12.7,1-17.5-4.7c-0.6-0.8-0.9-2.3-2.5-1.7C318.8,263.4,319.5,264.6,321.8,266.9z"/>
	<path class="st12" d="M360.4,121.1c-3.2-0.2-4.7,2.7-6.3,4.4c-2.4,2.7-3.1,1.6-4.4-0.6c-1-1.8-2.4-3.4-3.5-5.1c-1.9-3-3.9-3-6.8-1
		c-6.1,4.1-11.6,9.2-18.2,12.5c-1.6-8.6,1.9-15.4,7.2-21.7c1.3-1.5,2.7-2.2,4.4-1.8c7.3,1.8,14.7,1.6,22.1,1.5
		c2.9,0,2.9,0.6,1.6,3.1c-1.4,2.5-2.6,5.1-3.9,7.6c-0.4,0.7-1.3,1.6-0.3,2.4c0.9,0.6,1.9,0,2.5-0.6c2-2,3.8-4.3,5.9-6.2
		c2.1-1.8,4.6-3.2,7.3-0.7C365.2,116.4,362.9,119,360.4,121.1z"/>
	<path class="st13" d="M408,166.5c0.8-1,2-0.2,3.3-0.9c-7.1-7.3-11.7-16.4-19.1-23.3c-5.5-5.1-11.9-7.7-19.3-8.2
		c-2.2-2-2.6-4.6-2.2-7.5c3.7,1.4,7.6,1.1,11.5,1.6c1.4,0.2,2.9-0.1,4,1.1c4.5,5.3,11,7.8,16.5,11.6c2,1.4,3.6,2.8,4.7,4.9
		c3.7,6.9,6.2,14.5,13.3,20.3C415.7,166.7,411.9,167.1,408,166.5z"/>
	<path class="st3" d="M370.6,126.6c-0.4,2.8,0,5.4,2.2,7.5c-7.4,0.7-12.3,5-15.6,11.3c-3.4,6.4-6.6,12.9-9.8,19.4
		c-0.7-2.8,0.5-5.4,1.2-8c2.9-10.5,5.4-21.1,9.4-31.2c0.6-1.5,1.6-3,2.4-4.4c2.5-2.2,4.8-4.7,7.8-6.2c0.5-0.2,1-0.3,1.4-0.5
		c1.1-0.5,2.4-1.4,3.2-0.7c1.2,0.9-0.1,2.3-0.2,3.6C372.4,120.4,370.2,123.2,370.6,126.6z"/>
	<path class="st4" d="M328.3,213c-21.2-5.6-42.4-5.9-63.5,0.6c-1-1.5,0.1-1.9,1.1-2.6c5.5-4,12-4.7,18.3-5.6c4.5-0.6,9-0.6,13.5-0.9
		c1,0,2.1,0,3.1,0c7.6-0.5,14.8,1.1,21.8,3.9C325,209.1,327.7,209.9,328.3,213z"/>
	<path class="st1" d="M328.3,213c-0.6-3-3.2-3.8-5.6-4.8c-7-2.8-14.3-4.4-21.8-3.9c2.3-2.1,3.2-5.7,7.4-5.6c3.2,0.1,6.3-0.6,8.8,2.3
		c1.4,1.6,3.8,1,5.7,2c3.9,2.1,8.5,3.2,10.5,7.8c0.1,0.3,0.6,0.4,1,0.5c1.5,0.4,3.9-0.7,4.4,0.7c0.8,2.6,2.5,5.2,2.1,8.2
		c-3.8-2.4-7.5-5-11.7-6.8C328.8,213.3,328.6,213.1,328.3,213L328.3,213z"/>
	<path class="st1" d="M457.6,180c-1.4-5.2-2-10.5-2.4-15.8c-0.6-6.6-3.1-12.6-5.4-18.6c-0.5-1.4-0.7-3-1.1-4.5
		c0.3-0.8,1-1.1,1.7-1.1c0.2,0.7,0.4,1.5,0.6,2.2c0.2,0.7-0.1,1.7,0.8,2c1.1,0.3,1.6-0.7,2.1-1.4c0.6-0.8,0.9-2.2,2.2-1.7
		c1.4,0.5,1.2,1.8,1.2,3c0,1.3,0.2,2.7-0.3,3.9c-1.2,3.2,0.4,5.3,2.6,7.1c3.1,2.6,3.3,5,0.5,7.7c-2.6,2.5-2.9,6.5-0.8,9.4
		c0.4,0.5,0.7,1.1,1.1,1.6c1.8,2,2.2,4.6,1.2,6.6C461.2,182,459.2,179.2,457.6,180z"/>
	<path class="st8" d="M356.6,175.2c3.1-2.6,6.7-1.2,9.5,0c7.8,3.1,15.5,2.4,23.3,0.9c2.6-0.5,1.8-2.9,3.1-4c2.2-0.3,3.1-2.6,5-3.3
		c2.4,1.9,4.3-1.3,6.6-0.6c-5.4,5.2-10.3,11.1-17.9,13.3c-4.9,0.1-9.9,0.1-14.8,0.2C366.1,180.4,361.6,177.2,356.6,175.2z"/>
	<path class="st12" d="M321.8,266.9c-2.3-2.3-3-3.5-4.2-8.2c1.6-0.6,1.9,1,2.5,1.7c4.7,5.7,10.5,6.9,17.5,4.7
		c3.9-1.3,7.6-3.4,11.9-3.2c-0.2,1,0.4,2.3-1.2,2.8c-2.9,1.4-6,2.6-8.7,4.3C333,273.2,327.3,271.4,321.8,266.9z"/>
	<path class="st4" d="M371.4,181.7c4.9-0.1,9.9-0.1,14.8-0.2C383.7,186.8,375.4,186.9,371.4,181.7z"/>
	<path class="st1" d="M442.9,121.2c-1.3-3.7-2.6-7.5-3.9-11.2c4.8-0.9,6.7,0.6,6,5.2C444.7,117.4,446.1,120.2,442.9,121.2z"/>
	<path class="st1" d="M445.2,162c-0.2,3.3,0.1,6.6-0.8,9.9c-0.5-1.5-2.5-1.2-3.2-2.6c-0.9-1.7-1.3-3.5-0.6-5.2
		C441.4,161.9,443.3,161.8,445.2,162z"/>
	<path class="st1" d="M447.2,136.1c-1.2-2.5-1.8-5.2-2.3-7.9C449.3,130,449.7,131.2,447.2,136.1z"/>
	<path class="st1" d="M459.1,188.6c-0.8-1.7-0.9-3.6-0.9-5.5c1.5,0.1,3.5-0.5,3.8,1.6C462.2,186.6,461,188,459.1,188.6z"/>
	<path class="st1" d="M451.9,136.2c1.2,0.3,1.7,1.1,1.6,2.3c-0.1,1.5-1.2,1.4-2.3,1.5c-1.5,0.1-0.7-1-0.7-1.6
		C450.4,137.4,450.4,136.2,451.9,136.2z"/>
	<path class="st1" d="M473.6,236.7c-0.6-1.1-1.2-2.2-1.7-3.3c1.2,0.1,2.7-0.3,3.3,1.2C475.6,235.8,474.5,236.2,473.6,236.7z"/>
	<path class="st1" d="M426.1,58.4c-0.1,0.6-0.1,1.1-0.8,1.1c-0.7-0.1-1.1-0.6-1.2-1.2c-0.1-0.7,0.1-1.3,0.9-1.2
		C425.6,57.2,426,57.8,426.1,58.4z"/>
	<path class="st1" d="M476.3,241.3c-0.2-0.3-0.4-0.5-0.6-0.8C475.9,240.7,476.1,241,476.3,241.3z"/>
	<path class="st1" d="M475.5,239.9c-0.2-0.3-0.4-0.6-0.6-1C475.1,239.2,475.3,239.5,475.5,239.9z"/>
	<path class="st1" d="M448,138.7c-0.2-0.4-0.3-0.7-0.5-1.1C447.7,138,447.9,138.3,448,138.7z"/>
	<path class="st1" d="M461.3,199.3c-0.1-0.4-0.3-0.8-0.4-1.2C461.1,198.5,461.2,198.9,461.3,199.3z"/>
	<path class="st1" d="M460.5,195.4c-0.1-0.4-0.3-0.8-0.4-1.2C460.2,194.6,460.4,195,460.5,195.4z"/>
	<path class="st1" d="M459.7,191.5c-0.1-0.4-0.3-0.8-0.4-1.3C459.5,190.7,459.6,191.1,459.7,191.5z"/>
	<path class="st1" d="M458.2,182.9c-0.1-0.4-0.2-0.8-0.4-1.2C457.9,182,458.1,182.4,458.2,182.9z"/>
	<path class="st11" d="M143.7,214.5c-0.3-6.5,1.7-12.5,3.7-18.6c2-6.2,3.6-12.5,3.2-19.1c6.8-0.2,12.3-2,14-9.8
		c0.7-3.1,3.9-4,6.8-2.5c1.1,0.6,2.2,0.6,3.4,0.6c2.1,3.3,5.3,0.8,7.9,1.5c3.7-0.8,6.4,1.3,9.2,3.3c4.4,4.1,8.3,8.9,14.2,11
		c4.1,5.6,8.4,6.4,15.7,1.1c4.6-1.1,8.7-3.3,12.6-5.8c4.9-2,10-2,15.2-1.5c-0.4-4.2-2-7.6-3.2-11.1c1.3-0.5,0.7-1.4,0.5-2.3
		c-2-10.3-5.3-20.3-8.3-30.4c-2.1-6.9-5.8-12.7-12.2-16.4c2-2.6,3.8-0.7,5.2,0.6c2.4,2.1,4.6,4.5,6.6,7.1c4.4,5.7,4.5,5.6,8.5-0.2
		c0.6-0.9,1.2-1.7,1.7-2.6c1.5-2.5,3.1-3.4,5.8-1.2c6.4,5.1,13.6,9.3,19.7,14.9c0.6,2.6-0.1,4.9-1.4,7.1
		c-4.9,8.2-9.5,16.5-14.7,24.5c-3.9,6-5.1,12.8-7.1,19.4c-4.1,13.4-10.8,25.4-17.6,37.4c-8,14.1-15.7,28.3-23.5,42.5
		c-3,5.3-5.5,10.9-9.2,15.9c-0.5-0.1-1-0.2-1.5-0.4c-9.9-4.6-20-8.6-30.9-10c-3.2-0.4-4.8-2-6.2-4.9c-6.8-14.7-11.7-30-15.5-45.7
		C146,217.2,146.1,214.9,143.7,214.5z"/>
	<path class="st9" d="M249.2,354.2c-5.4,3.8-11.2,6.8-18.1,7c-0.1-1.7-1.7-1.8-2.8-2.4c-4.8-2.5-8.8-6-12.8-9.7
		c-4.8-4.4-5.3-10.6-6.3-16.4c-0.5-2.9-0.6-6-1.2-8.9c-0.7-3.3-0.6-6.4,1-9.5c1.6-3,2.5-6.4,4.4-9.1c5.5-7.8,7.1-17,9.8-25.8
		c3.6-11.5,6.8-23.1,10.4-34.5c2.3-7.2,6.3-13.5,11.4-19c1.1-1.2,2.2-2.3,4-2c-6.3,9-9.6,18.7-6.7,29.8c0.7,2.8,1.5,5.6,2.2,8.5
		c0.2,1.3,0.7,2.4,1.7,3.3c6.2,8.4,12.5,16.8,18.7,25.2c-0.6,0-1.2,0-1.7,0c-0.9-0.8-1.6-0.4-1.5,0.5c0.9,4.6-1.6,8.4-3.7,11.7
		c-5.7,8.6-3.4,16.2,1.3,23.9c-4.2,5-8.8,9.7-9.6,16.6C249.4,347,250.2,350.7,249.2,354.2z"/>
	<path class="st12" d="M274,133c-6.1-5.6-13.3-9.7-19.7-14.9c-2.8-2.2-4.3-1.3-5.8,1.2c-0.5,0.9-1.1,1.8-1.7,2.6
		c-4,5.8-4.1,5.9-8.5,0.2c-2-2.6-4.2-5-6.6-7.1c-1.4-1.2-3.2-3.1-5.2-0.6c-1.7-0.3-3.4-0.6-5.2-1c0.7,5,2.6,9.3,2.1,13.9
		c-4.2-0.1-8.3,0.9-12.5,1.5c-1.3,0.2-2.5,0.3-3.2,1.7c-3.7,3.1-7.5,6-12,8c-5.1,2.3-8.3,5.9-10.6,11.1c-2,4.4-4,9.1-7.9,12.4
		c-2-1.8-3.9-3.8-6-5.4c-1.7-1.3-3.2-1.4-4.9,0.7c-2.9,3.6-6.5,6.6-9.4,10.3c-1.6,2.1-3.5,4.3-6.5,4.5c-3-14.3,1.2-27.2,7.9-39.5
		c0.9-1.7,1.6-3.5,2.4-5.3c0.2-0.3,0.4-0.6,0.6-1c0.1-0.2,0.2-0.3,0.3-0.5c3.1-1.8,3.5-5.7,6.1-7.9c0.8,0.3,1.6,0.9,2.6,0.2
		c9-6,19.7-7.9,29.5-12c9.1-3.8,18.5-7,27.6-10.6c2.7-1.1,4.7-1.2,6.8,1.3c2.7,3.2,6.1,5.7,8.7,9c3,3.8,6.8,3.9,10.9,3.3
		c3.3-0.5,6.6-1.2,9.9-2c2.6-0.6,4.2,0.3,5.4,2.6C272.8,117.1,275,124.7,274,133z"/>
	<path class="st5" d="M143.7,214.5c2.4,0.4,2.3,2.6,2.7,4.3c3.8,15.7,8.7,31,15.5,45.7c1.3,2.9,3,4.5,6.2,4.9
		c10.9,1.4,21,5.4,30.9,10c0.5,0.2,1,0.3,1.5,0.4c-0.7,2-1.6,3.9-2.9,5.5c-2,0-2.7,1.7-3.2,3c-3.1,9.2-6.7,18.2-8.1,27.9
		c-0.6,4.6,0.2,9.3-1.4,13.8c-5-3.7-8.4-8.9-13-13c-6.8-6.1-13.4-12.4-19.9-18.8c-7.3-7.2-9.9-16.1-11-25.7
		c-0.9-8.1,0.1-16.2,0.4-24.2c0.1-2.6,0.5-5.2-0.1-7.8C143.4,231.9,142.8,223.1,143.7,214.5z"/>
	<path class="st3" d="M185,329.9c1.6-4.5,0.7-9.2,1.4-13.8c1.4-9.7,5-18.7,8.1-27.9c0.4-1.3,1.2-3,3.2-3c-1.8,17,0,33.8,3,50.5
		c0.4,2,1,4,1.5,6c-1.3,1.8,0.5,3.6,0.1,5.5C196.3,341.6,190.4,336.1,185,329.9z"/>
	<path class="st12" d="M174.7,96.7c3.3-4.8,7.1-9.3,9.4-14.8c4.3-4.5,7.5-9.8,10.3-15.4c3.5-2.2,5.8-5.3,7.1-9.1
		c2.6,0.2,3.7,0.9,1.8,3.6c-3.9,5.5-7.5,11.2-11.9,16.4c-0.9,1.1-2.2,2.4-1.4,3.8c0.8,1.4,2.3,0.2,3.5,0.1c1.3-0.1,2.6,0,4.2,0
		c-1.6,1.4-3.2,2.5-4.5,3.8c-2.8,2.7-2.6,3.4,1,4.5c0.7,0.2,1.6-0.1,2.2,1.1c-8.2,6-15.2,13.4-22.5,20.6c-1.5,1.5-2,4.1-4.7,4.3
		c0.2-0.6,0.4-1.2,0.5-1.8C171,108,174.5,102.8,174.7,96.7z"/>
	<path class="st0" d="M203.7,44.7c-0.2,3.8-3.6,5.4-4.4,8.4c0,0.1-0.5,0.2-0.7,0.2c-5.8-2.6-11.5,3.2-17.4,0.3
		c-0.2-0.1-0.6-0.1-0.8,0c-4.8,3.1-5.6-0.8-6.8-3.9c-0.1-0.2-0.2-0.7-0.2-0.7c3.4-1.2,1.8-5.4,4.3-7.1c1.5-1,3.9-3.6,3.5,1.3
		c-0.1,1.6,1.3,1.8,2.5,1.8c2.9-0.1,5.2,0.4,7.2,2.9c1.4,1.7,3.5,1.5,5.1-0.3c1.3-1.5,2.4-3.1,3.8-4.4c0.7-0.7,1.7-1.4,2.8-0.8
		C203.8,42.9,203.7,44,203.7,44.7z"/>
	<path class="st6" d="M174.7,96.7c-0.2,6.1-3.7,11.2-5,17c-0.1,0.6-0.3,1.2-0.5,1.8c-0.8,0.6-1.4,1.4-1.6,2.4
		c-2.6,2.2-3,6.1-6.1,7.9c1.1-6.3,2.8-12.4,4.4-18.5C167,103,171.1,99.8,174.7,96.7z"/>
	<path class="st9" d="M345.5,363.1c6.9,3.3,14.3,4.5,21.9,4.7c-5,6.1-10.5,11.2-19.3,10.1c-2.9-0.4-4.8,2.4-7.3,3.2
		c-3.8-0.1-6.9,2.2-10.2,3.6c-11.6,4.6-23.4,8-36.1,7.5c-14.2-0.6-27.3-5-40-11.2c-0.7-0.3-1.5-0.7-1.9-1.3
		c-3.7-5.5-9.5-6.2-15.3-7.1c-3.2-0.5-6.7-1.1-8.4-4.6c8.3,0.1,15.9-2.6,23.4-5.9c0.1,4.8,3.9,4.5,7,5c0.1,0.7,0.3,1.3,1,1.6
		c3.7,1.5,6.6,4.1,9.5,6.7c5.2,4.6,11,5.6,18,4c6.7-1.5,13.8-1.4,20.5,0c5,1,9.5,1.6,13.7-1.5c3.6-2.7,8.3-3.7,10.9-7.6
		c3.9-0.4,7.1-2.8,10.8-3.9C345.2,365.7,345.7,364.6,345.5,363.1z"/>
	<path class="st6" d="M194.4,66.6c-2.8,5.6-6,10.9-10.3,15.4c-3.9,1.3-6.6,4.4-9.6,7c-5.2,4.6-10.2,9.5-15.3,14.2
		c-0.5-2.6,0.5-4.9,1.5-7.1c1.1,0,1.6-0.8,2-1.6c2.9-6.1,6.4-11.8,10.3-17.2c0.9-1.3,1.2-2.5,0.9-4
		C180.7,70.9,187.5,68.8,194.4,66.6z"/>
	<path class="st5" d="M173.9,73.1c0.3,1.5,0,2.7-0.9,4c-3.9,5.4-7.4,11.2-10.3,17.2c-0.4,0.8-0.9,1.6-2,1.6c1.9-7.4,5.5-14.2,8-21.3
		C169.6,72.3,172.1,73.5,173.9,73.1z"/>
	<path class="st7" d="M397.4,284.5c-1.1-4.1,0.8-6.5,4.4-8.3c4.5-2.2,8.7-1.5,12.4,1.4c6.6,5,6.2,4.8,11.2-1.6
		c13.2-16.9,17.7-37.3,23.5-57.2c0.5-1.7-0.1-4,2-5.1c0.9,5.8,0.9,11.7,1.1,17.6c0.1,3.4,1.2,6.6,2.1,9.9c-2.1,0.7-1,2.2-1,3.6
		c0.4,12.8,2.1,25.7-1.6,38.4c-1.7,5.7-4.7,10.5-8.7,14.6c-11.7,11.5-23.6,22.8-35.4,34.1c-0.2-0.7-0.6-1.5-0.6-2.2
		c1.6-14.2,0.6-28-5.8-41.1C400.2,286.8,399.8,284.8,397.4,284.5z"/>
	<path class="st9" d="M397.4,284.5c2.4,0.3,2.9,2.3,3.7,4c6.4,13.1,7.5,26.9,5.8,41.1c-0.1,0.7,0.4,1.5,0.6,2.2
		c-3.8,4.9-7.9,9.5-13.1,13c-0.4-0.2-0.7-0.5-1.1-0.7c4.4-17.4,5.2-35.2,4.7-53C397.9,288.9,397.6,286.7,397.4,284.5z"/>
	<path class="st0" d="M546.1,142.4c-3.2-0.7-5.7-1-7.6-2.7c-1.8-1.6-3.4-1.4-5.3-0.4c-3.9,2-7.5,4.1-8.5,8.9
		c-0.3,1.5-0.8,3.2-3.1,2.1c-0.7-0.3-1.8-0.1-1.9,0.8c-0.7,4.7-5,8.6-3.4,13.9c0.3,1.1,0.1,2.4-0.2,3.5c-0.4,1.6-1.2,2.2-3.2,1.5
		c-4.6-1.7-7-4.3-6-9.5c0.5-2.4,0.2-4.5-3.2-5.2c-1.7-0.4-3.5-2.3-4.5-4c-3.2-5.4-8-9.5-10.6-15.2c-2-4.5-0.9-8.9,3.2-11.7
		c0.4-0.3,1.1-0.5,1.2-0.9c1.5-7.1,8.2-7.5,13.2-10c1.1-0.5,2.4-0.9,3.5-1.5c1.7-0.9,3.1-1.9,4.6,1c1,1.9,4.3,2.2,6.4,3.6
		c2.5,1.7,5.1,3.7,8.6,3.1c0.8-0.1,1.6,0.3,1.7,1.2c0.1,0.9-0.2,1.5-1,2c-2.1,1.2-4,0.6-5.9-0.5c-3.9-2.3-8.1-4.2-11.7-6.9
		c-0.7-0.6-1.9-1.6-2.8-0.7c-1,1-0.3,2.1,0.5,3.1c1.4,1.8,2.6,3.6,5.5,3.5c2.8,0,5.4,1.7,7.9,3.2c2.4,1.4,4.5,1.5,6.9,0.2
		c3.5-1.9,5.1-1.1,6.4,2.7c0.8,2.6,2.2,4.5,4.8,5.3c2.2,0.6,3,1.9,2.7,4C544.1,138.5,545.2,140.1,546.1,142.4z"/>
	<path class="st9" d="M463.9,102.4c5.3,1.4,10.2,2.7,15.1,4c1.4,0.4,2.4,1.2,2.5,2.6c1,8.8,3.1,17.5,3.5,26.4c0,0.2-0.2,0.4-0.4,1.1
		c-5.1-5.8-8.7-12.5-13.6-18.1C467.1,113.9,465.8,108.4,463.9,102.4z"/>
	<path class="st4" d="M150.3,172.2c3-0.3,4.9-2.4,6.5-4.5c2.9-3.7,6.5-6.7,9.4-10.3c1.7-2.1,3.2-2,4.9-0.7c2.1,1.6,4,3.6,6,5.4
		c-0.8,1-1.6,2-2.3,3c-1.2,0-2.3-0.1-3.4-0.6c-2.9-1.5-6.1-0.6-6.8,2.5c-1.8,7.8-7.2,9.6-14,9.8
		C150.5,175.3,150.4,173.7,150.3,172.2z"/>
	<path class="st6" d="M161.3,126.4c-0.2,0.3-0.4,0.6-0.6,1C160.6,126.9,160.7,126.6,161.3,126.4z"/>
	<path class="st6" d="M414.4,70.9c2,0.6,4.1,1.2,6.1,1.9c0,1.9,0.4,3.5,1.6,5c3.5,4.6,6.1,9.9,8.9,15c1.2,2.2,2.6,4.5,2.1,7.3
		c-3.7-3.4-7.4-6.8-11.2-10c-3.6-3-6.7-6.8-11.5-8.2c0,0,0.1,0,0.1,0c-0.2-0.3-0.5-0.6-0.7-0.9c-3.3-4.7-6.5-9.4-9.8-14.1
		C404.8,68.2,409.6,69.6,414.4,70.9z"/>
	<path class="st3" d="M433.9,127.5c-3.7-3.3-5.3-7.9-7.3-12.1c-2.8-6-5.5-12-6.6-18.6c3.2,2.6,5.8,5.9,8.5,9
		c0.7,0.8,1.3,1.8,1.4,2.7C430.7,114.9,432.6,121.1,433.9,127.5z"/>
	<path class="st9" d="M433.1,100.1c0.5-2.8-1-5.1-2.1-7.3c-2.8-5.1-5.3-10.3-8.9-15c-1.2-1.5-1.6-3.2-1.6-5c3.3-0.2,5.2,1.3,6.4,4.5
		c2.4,6.7,5.1,13.3,7.6,20c0.6,1.7,1.4,3.4,0.9,5.3C434.6,101.7,433.9,100.9,433.1,100.1z"/>
	<path class="st1" d="M486.3,255.5c5.6,1.2,6.4,2.1,6.5,7C490.3,260.4,488.1,258.1,486.3,255.5z"/>
	<path class="st6" d="M263.3,290.7c0.6,0,1.2,0,1.7,0c2.5,0.6,4.1,2.6,6.1,4c6.1,4.4,13.5,5.3,20.2,7.8c1.2,3.8,1.2,7.7,1.5,11.6
		c0.3,4.4-2.7,7.4-5.5,9.9c-11.8,10.4-24,20.4-36.7,29.6c-0.4,0.3-0.9,0.4-1.4,0.6c1.1-3.5,0.2-7.2,0.6-10.8
		c0.8-6.9,5.4-11.6,9.6-16.6c4.7-4.5,7.3-10.7,12.9-14.5c1.3-0.9,1.3-2.7,0.6-4.3c-1.3-2.9-3.2-5.3-5.1-7.8
		C265.6,297.4,262.6,294.9,263.3,290.7z"/>
	<path class="st9" d="M345.6,238.9c-1.4-1.7-2.8-3.3-4.1-5c-2.7-3.3-5.7-5.7-10.4-3.7c-0.8,0.3-1.8,0.2-2.7,0
		c-13.5-4.1-27.4-3.8-41.3-3.4c-0.1-4-0.1-8-0.2-12c12.1-0.1,24.2-1.4,36,2.3c8.5,2.7,16.1,6.8,20.6,15
		C344.6,234.1,346,236.3,345.6,238.9L345.6,238.9z"/>
	<path class="st10" d="M244.7,262.2c-0.7-2.8-1.5-5.6-2.2-8.5c3.8,0.4,5.6,4.1,9,5.2c1.1,0.3,2.1,1,3.1,1.5c1.4,0.5,2.9,0.9,4-0.3
		c1.2-1.2,0.8-2.7,0.3-4c-1.5-4-1.6-8.1-0.4-12.3c1.1-3.8,4.8-6.5,9.1-6.5c3.9,0,9.1,3.3,9.6,6.7c0.9,5.1,1.9,10.2,1.7,15.4
		c-0.2,4.2-2.3,6.5-5.8,6.8c1.9-2.8,4.2-5.5,3.5-9.3c0.2-0.2,0.7-0.2,0.3-0.7c-0.1,0.2-0.1,0.5-0.2,0.7c-0.5,0.6-1,1.1-1.4,1.7
		c-4,6.3-9.4,9-16.9,7C253.7,264.5,249.5,262.3,244.7,262.2z"/>
	<path class="st14" d="M286.8,214.6c0.1,4,0.1,8,0.2,12c-7.2,1.5-14.7,1.1-21.8,3.4c-0.3,0.1-0.8,0.1-1.1,0
		c-6.4-3.2-9.5,1.2-12.7,5.3c-0.7,0.9-1.5,1.8-2.2,2.7l0,0c0.1-5,2.8-8.7,6.1-11.8C264.2,218.2,274.9,214.7,286.8,214.6z"/>
	<path class="st14" d="M276.6,256.9c0.7,3.8-1.6,6.5-3.5,9.3c-2,1.3-3.9,2.8-6,3.9c-3.2,1.7-6.5,1.1-9.7-0.3c-3.6-1.6-7-3.8-11-4.3
		c-0.9-0.9-1.5-2-1.7-3.3c4.8,0,9,2.3,13.6,3.5c7.6,2,12.9-0.7,16.9-7C275.6,258.1,276.1,257.6,276.6,256.9
		C276.6,257,276.6,256.9,276.6,256.9z"/>
	<path class="st9" d="M345.5,238.9c0.6-0.2,0.6,0.2,0.6,0.6c0,0.1-0.1,0.2-0.2,0.3C345.8,239.5,345.7,239.2,345.5,238.9
		C345.6,238.9,345.5,238.9,345.5,238.9z"/>
	<path class="st4" d="M328.3,213c0.3,0.2,0.5,0.3,0.8,0.5C328.8,213.3,328.6,213.1,328.3,213z"/>
	<path class="st14" d="M249.2,238.1c-0.1,0.1-0.1,0.2-0.2,0.3C249.1,238.3,249.1,238.2,249.2,238.1
		C249.2,238.1,249.2,238.1,249.2,238.1z"/>
	<path class="st14" d="M345.5,363.1c0.2,1.5-0.3,2.6-1.7,3c-3.6,1.2-6.8,3.6-10.8,3.9c-3.6-1.4-7.8-0.5-11.3-2.6
		c-7.1-4.2-15-5-23-4.5c-6.1,0.3-12.3-0.8-18.2,1.5c-5.4,2.1-11,3.1-16.8,2.4c-1.4-0.2-2.9,0-4.3,0.1c-3.2-0.5-6.9-0.3-7-5
		c7.9-5,15.9-9.9,23.8-15.1c3.8-2.5,7.6-3.5,12.1-2.7c7,1.3,14.1,1,21-0.3c2.7-0.5,4.8-0.2,7,1.3
		C325.7,351.5,335.3,357.8,345.5,363.1z"/>
	<path class="st4" d="M414.4,70.9c-4.8-1.4-9.6-2.7-14.3-4.1c-1.8-2.3-3.6-4.7-5.6-6.9c-1.8-2-0.4-3.1,1.2-3.1
		c6.2,0.1,12.4,0.9,18,3.7c1.7,0.9,2.7,2.8,1.8,5C414.9,67.3,414.2,69,414.4,70.9z"/>
	<path class="st8" d="M409.8,81c0.2,0.3,0.5,0.6,0.7,0.9C410.3,81.6,410.1,81.3,409.8,81z"/>
	<path class="st8" d="M363.3,168.2c-2.8-3.7-3.8-7.6-1.2-11.9c1.5,0.6,1.3,2.1,1.8,3.2c1.9,4.2,7.6,7.2,12,6.1
		c4.8-1.2,9.1-6.6,8.8-11.1c-0.3-4.7-0.3-4.7,4.1-3.6c0.5,0.1,1,0.1,1.5,0.2c-0.1,1-0.1,2.1-0.2,3.1c-0.8,14.6-10.6,20.5-23.7,14.4
		C365.5,168.1,364.5,166.9,363.3,168.2z"/>
	<path class="st1" d="M374.8,156.4c-4.1,0-7.6-3.2-7.5-6.9c0.1-3,3.6-5.5,7.8-5.5c4.4,0,7.7,2.3,7.8,5.5
		C383,153,378.9,156.5,374.8,156.4z"/>
	<path class="st2" d="M363.3,168.2c1.2-1.4,2.2-0.1,3.1,0.3c13.1,6.2,22.9,0.2,23.7-14.4c0.1-1,0.1-2.1,0.2-3.1
		c2.2,0.3,2,2.2,2.2,3.6c0.8,6.1-1,11.4-5.1,15.8C380.7,177.8,370.9,176.8,363.3,168.2z"/>
	<path class="st14" d="M397.5,168.8c-1.9,0.7-2.8,3-5,3.3c0.1-4.1,1.4-7.8,3.5-12.2C397.6,163.3,400.2,165.5,397.5,168.8z"/>
	<path class="st10" d="M246.5,163.5c1.1,3.6,2.8,7,3.2,11.1c-5.2-0.5-10.3-0.5-15.2,1.5c-1.3-1.6-2.8-1.7-4.8-1.3
		c-8.2,1.5-16.1,5.3-24.7,1.4c-2.2-1-3.5-1.9-3.6-4.3c-0.4-2.4-0.8-4.8-1.3-7.2c-0.2-1-0.2-2.4-1.4-2.5c-1.2-0.1-1.5,1.3-1.9,2.2
		c-0.2,0.5-0.3,1-0.5,1.5c-3.3-0.8-3,2.5-4.3,4c-2.7-2-5.4-4.1-9.2-3.3c0.1-0.5,0.1-1.2,0.4-1.4c5.4-4.8,8.7-11.3,13.4-16.7
		c4.7-5.4,9.7-10.5,16.7-12.9c3.8-1.3,7.8-1.3,11.7-1.2c5.5,1.9,9.4,5.7,12.4,10.7C240.8,151,243.1,157.5,246.5,163.5z M229.7,169
		c2.4-1.8,2.8-4.6,3-7.3c0.1-1.1,0.7-2.7-0.7-3.2c-1.5-0.5-1.6,1.3-2.2,2.2c-2.6,3.9-9.2,6.3-14.3,5c-3.8-1-6.9-5.6-7.1-10.7
		c-0.2-5.5-0.2-5.5-5.6-4c-2.4,2.5-1.5,5.7-1.4,8.5c0.3,7,5,13.3,11.4,15.3C217.6,176.4,225.8,175.3,229.7,169z M224.6,157.3
		c3.1,0.2,5.8-2,5.9-4.9c0.1-3.2-2.5-6.1-5.7-6.2c-3.7-0.1-5.7,1.9-5.8,5.8C218.9,154.7,221.4,157.1,224.6,157.3z"/>
	<path class="st6" d="M246.5,163.5c-3.3-6-5.7-12.5-9.2-18.4c-3-5-6.8-8.8-12.4-10.7c-2.8-1.7-4.2-3.7-1.1-6.4c0,0-0.3-0.4-0.4-0.6
		c0.5-4.6-1.4-8.9-2.1-13.9c1.8,0.3,3.5,0.7,5.2,1c6.4,3.8,10.1,9.5,12.2,16.4c3,10.1,6.3,20,8.3,30.4
		C247.1,162.1,247.8,163,246.5,163.5z"/>
	<path class="st5" d="M213.1,135.6c-7,2.4-12,7.5-16.7,12.9c-4.7,5.4-8,11.9-13.4,16.7c-0.3,0.3-0.2,0.9-0.4,1.4
		c-2.6-0.7-5.8,1.8-7.9-1.5c0.8-1,1.6-2,2.3-3c4-3.3,5.9-8,7.9-12.4c2.3-5.2,5.5-8.8,10.6-11.1c4.4-2,8.3-4.9,12-8
		c-0.5,2.9,0.2,4.8,3.7,4.5C211.9,135,212.5,135.4,213.1,135.6z"/>
	<path class="st8" d="M201.3,172c0,2.4,1.3,3.3,3.6,4.3c8.6,3.8,16.6,0,24.7-1.4c2-0.4,3.5-0.3,4.8,1.3c-3.9,2.5-8,4.7-12.6,5.8
		c-5.3-0.2-10.5-0.3-15.7-1.1c-6-2.1-9.9-6.8-14.2-11c1.3-1.5,1-4.7,4.3-4C197.5,168.2,198.8,170.6,201.3,172z"/>
	<path class="st3" d="M206.1,180.8c5.2,0.8,10.5,0.9,15.7,1.1C214.5,187.2,210.2,186.4,206.1,180.8z"/>
	<path class="st5" d="M263.3,290.7c-0.7,4.2,2.3,6.7,4.5,9.5c1.9,2.5,3.8,4.9,5.1,7.8c0.7,1.6,0.8,3.5-0.6,4.3
		c-5.6,3.7-8.2,10-12.9,14.5c-4.7-7.7-7-15.3-1.3-23.9c2.2-3.3,4.6-7.1,3.7-11.7C261.6,290.3,262.4,289.9,263.3,290.7z"/>
	<path class="st3" d="M213.1,135.6c-0.6-0.2-1.2-0.5-1.8-0.5c-3.5,0.3-4.1-1.7-3.7-4.5c0.7-1.3,1.9-1.5,3.2-1.7
		c4.2-0.6,8.3-1.6,12.5-1.5c0.1,0.2,0.4,0.6,0.4,0.6c-3.1,2.7-1.8,4.7,1.1,6.4C220.9,134.3,217,134.3,213.1,135.6z"/>
	<path class="st5" d="M259.3,366.9c1.4,0,2.9-0.2,4.3-0.1c5.8,0.6,11.4-0.3,16.8-2.4c5.9-2.3,12.1-1.2,18.2-1.5
		c8.1-0.5,15.9,0.3,23,4.5c3.5,2.1,7.6,1.3,11.3,2.6c-2.7,3.9-7.4,4.9-10.9,7.6c-4.1,3.1-8.7,2.5-13.7,1.5c-6.7-1.4-13.9-1.5-20.5,0
		c-7,1.6-12.8,0.6-18-4c-2.9-2.6-5.8-5.2-9.5-6.7C259.7,368.2,259.4,367.6,259.3,366.9z"/>
	<path class="st14" d="M276.6,257c0.1-0.2,0.1-0.5,0.2-0.7C277.3,256.7,276.8,256.8,276.6,257C276.6,256.9,276.6,257,276.6,257z"/>
	<path class="st8" d="M202.9,151c5.4-1.5,5.4-1.5,5.6,4c0.1,5.1,3.2,9.8,7.1,10.7c5.1,1.3,11.7-1.1,14.3-5c0.6-0.9,0.7-2.7,2.2-2.2
		c1.3,0.5,0.7,2.1,0.7,3.2c-0.2,2.7-0.6,5.5-3,7.3c-1.9-1.5-3.1,0.4-4.5,1c-7.9,3.3-15.4,1-19.3-6.3
		C203.7,159.8,203.2,155.4,202.9,151z"/>
	<path class="st2" d="M202.9,151c0.3,4.4,0.8,8.8,2.9,12.8c4,7.2,11.4,9.6,19.3,6.3c1.4-0.6,2.6-2.5,4.5-1c-3.9,6.3-12,7.3-16.8,5.8
		c-6.3-2-11.1-8.2-11.4-15.3C201.4,156.7,200.5,153.5,202.9,151z"/>
	<path class="st1" d="M224.6,157.3c-3.2-0.2-5.7-2.5-5.6-5.3c0.1-3.9,2.1-5.9,5.8-5.8c3.2,0.1,5.8,3,5.7,6.2
		C230.4,155.2,227.7,157.4,224.6,157.3z"/>
	<path class="st14" d="M201.3,172c-2.5-1.4-3.8-3.7-5.1-6c0.2-0.5,0.3-1,0.5-1.5c0.4-0.9,0.7-2.3,1.9-2.2c1.2,0.1,1.2,1.5,1.4,2.5
		C200.5,167.1,200.9,169.6,201.3,172z"/>
</g>
</svg>
